<?xml version="1.0" encoding="UTF-8" standalone="no"?>
<!DOCTYPE svg PUBLIC "-//W3C//DTD SVG 1.1//EN" "http://www.w3.org/Graphics/SVG/1.1/DTD/svg11.dtd">
<svg xmlns="http://www.w3.org/2000/svg" xmlns:xlink="http://www.w3.org/1999/xlink" version="1.1" width="386.54pt" height="386.54pt" viewBox="0 0 386.54 386.54">
<rect width="100%" height="100%" fill="white"/>
<g enable-background="new">
<clipPath id="cp0">
<path transform="matrix(1,0,0,-1,3.083,383.457)" d="M 0 0 L 380.3784 0 L 380.3784 380.3784 L 0 380.3784 Z "/>
</clipPath>
<g clip-path="url(#cp0)">
<path transform="matrix(1,0,0,-1,3.083,383.457)" d="M .23743 .23743 L 23.9814 .23743 L 23.9814 23.9814 L 47.72537 23.9814 L 47.72537 47.72537 L 71.46935 47.72537 L 71.46935 71.46935 L 95.21332 71.46935 L 95.21332 95.21332 L 118.95728 95.21332 L 118.95728 118.95728 L 142.70125 118.95728 L 142.70125 142.70125 L 166.44522 142.70125 L 166.44522 166.44522 L 190.1892 166.44522 L 190.1892 190.1892 L 213.93317 190.1892 L 213.93317 213.93317 L 237.67714 213.93317 L 237.67714 237.67714 L 261.4211 237.67714 L 261.4211 261.4211 L 285.16508 261.4211 L 285.16508 285.16508 L 308.90904 285.16508 L 308.90904 308.90904 L 332.653 308.90904 L 332.653 332.653 L 356.397 332.653 L 356.397 356.397 L 380.14097 356.397 L 380.14097 380.14097 L 356.397 380.14097 L 356.397 356.397 L 332.653 356.397 L 332.653 332.653 L 308.90904 332.653 L 308.90904 308.90904 L 285.16508 308.90904 L 285.16508 285.16508 L 261.4211 285.16508 L 261.4211 261.4211 L 237.67714 261.4211 L 237.67714 237.67714 L 213.93317 237.67714 L 213.93317 213.93317 L 190.1892 213.93317 L 190.1892 190.1892 L 166.44522 190.1892 L 166.44522 166.44522 L 142.70125 166.44522 L 142.70125 142.70125 L 118.95728 142.70125 L 118.95728 118.95728 L 95.21332 118.95728 L 95.21332 95.21332 L 71.46935 95.21332 L 71.46935 71.46935 L 47.72537 71.46935 L 47.72537 47.72537 L 23.9814 47.72537 L 23.9814 23.9814 L .23743 23.9814 L .23743 .23743 Z " fill="#00ff00"/>
</g>
<clipPath id="cp1">
<path transform="matrix(1,0,0,-1,3.083,383.457)" d="M 0 0 L 380.3784 0 L 380.3784 380.3784 L 0 380.3784 Z "/>
</clipPath>
<g clip-path="url(#cp1)">
</g>
<text xml:space="preserve" transform="matrix(1 0 -0 1 0 386.54)" font-size="4.98132" font-family="CMSY5" font-style="italic"><tspan y="-198.322" x="10.799">&#x2212;</tspan></text>
<text xml:space="preserve" transform="matrix(1 0 -0 1 0 386.54)" font-size="4.98132" font-family="CMR5"><tspan y="-198.322" x="16.196">8</tspan></text>
<text xml:space="preserve" transform="matrix(1 0 -0 1 0 386.54)" font-size="4.98132" font-family="CMSY5" font-style="italic"><tspan y="-198.322" x="34.543">&#x2212;</tspan></text>
<text xml:space="preserve" transform="matrix(1 0 -0 1 0 386.54)" font-size="4.98132" font-family="CMR5"><tspan y="-198.322" x="39.939">7</tspan></text>
<text xml:space="preserve" transform="matrix(1 0 -0 1 0 386.54)" font-size="4.98132" font-family="CMSY5" font-style="italic"><tspan y="-198.322" x="58.286">&#x2212;</tspan></text>
<text xml:space="preserve" transform="matrix(1 0 -0 1 0 386.54)" font-size="4.98132" font-family="CMR5"><tspan y="-198.322" x="63.683">6</tspan></text>
<text xml:space="preserve" transform="matrix(1 0 -0 1 0 386.54)" font-size="4.98132" font-family="CMSY5" font-style="italic"><tspan y="-198.322" x="82.03">&#x2212;</tspan></text>
<text xml:space="preserve" transform="matrix(1 0 -0 1 0 386.54)" font-size="4.98132" font-family="CMR5"><tspan y="-198.322" x="87.427">5</tspan></text>
<text xml:space="preserve" transform="matrix(1 0 -0 1 0 386.54)" font-size="4.98132" font-family="CMSY5" font-style="italic"><tspan y="-198.322" x="105.774">&#x2212;</tspan></text>
<text xml:space="preserve" transform="matrix(1 0 -0 1 0 386.54)" font-size="4.98132" font-family="CMR5"><tspan y="-198.322" x="111.17">4</tspan></text>
<text xml:space="preserve" transform="matrix(1 0 -0 1 0 386.54)" font-size="4.98132" font-family="CMSY5" font-style="italic"><tspan y="-198.322" x="129.517">&#x2212;</tspan></text>
<text xml:space="preserve" transform="matrix(1 0 -0 1 0 386.54)" font-size="4.98132" font-family="CMR5"><tspan y="-198.322" x="134.914">3</tspan></text>
<text xml:space="preserve" transform="matrix(1 0 -0 1 -.000015258789 386.54)" font-size="4.98132" font-family="CMSY5" font-style="italic"><tspan y="-198.322" x="153.261">&#x2212;</tspan></text>
<text xml:space="preserve" transform="matrix(1 0 -0 1 -.000015258789 386.54)" font-size="4.98132" font-family="CMR5"><tspan y="-198.322" x="158.658">2</tspan></text>
<text xml:space="preserve" transform="matrix(1 0 -0 1 -.000015258789 386.54)" font-size="4.98132" font-family="CMSY5" font-style="italic"><tspan y="-198.322" x="177.005">&#x2212;</tspan></text>
<text xml:space="preserve" transform="matrix(1 0 -0 1 -.000015258789 386.54)" font-size="4.98132" font-family="CMR5"><tspan y="-198.322" x="182.401">1</tspan></text>
<text xml:space="preserve" transform="matrix(1 0 -0 1 -.000015258789 386.53999)" font-size="4.98132" font-family="CMR5"><tspan y="-198.433" x="203.447">0</tspan></text>
<text xml:space="preserve" transform="matrix(1 0 -0 1 -.000015258789 386.53999)" font-size="4.98132" font-family="CMR5"><tspan y="-198.433" x="227.19">1</tspan></text>
<text xml:space="preserve" transform="matrix(1 0 -0 1 -.000015258789 386.53999)" font-size="4.98132" font-family="CMR5"><tspan y="-198.433" x="250.934">2</tspan></text>
<text xml:space="preserve" transform="matrix(1 0 -0 1 0 386.53999)" font-size="4.98132" font-family="CMR5"><tspan y="-198.433" x="274.678">3</tspan></text>
<text xml:space="preserve" transform="matrix(1 0 -0 1 .000030517579 386.53999)" font-size="4.98132" font-family="CMR5"><tspan y="-198.433" x="298.421">4</tspan></text>
<text xml:space="preserve" transform="matrix(1 0 -0 1 0 386.53999)" font-size="4.98132" font-family="CMR5"><tspan y="-198.433" x="322.165">5</tspan></text>
<text xml:space="preserve" transform="matrix(1 0 -0 1 0 386.53999)" font-size="4.98132" font-family="CMR5"><tspan y="-198.433" x="345.909">6</tspan></text>
<text xml:space="preserve" transform="matrix(1 0 -0 1 0 386.53999)" font-size="4.98132" font-family="CMR5"><tspan y="-198.433" x="369.652">7</tspan></text>
<text xml:space="preserve" transform="matrix(1 0 -0 1 -.000015258789 386.53999)" font-size="4.98132" font-family="CMSY5" font-style="italic"><tspan y="-13.947" x="192.856">&#x2212;</tspan></text>
<text xml:space="preserve" transform="matrix(1 0 -0 1 -.000015258789 386.53999)" font-size="4.98132" font-family="CMR5"><tspan y="-13.947" x="198.253">8</tspan></text>
<text xml:space="preserve" transform="matrix(1 0 -0 1 -.000015258789 386.54)" font-size="4.98132" font-family="CMSY5" font-style="italic"><tspan y="-37.691" x="192.856">&#x2212;</tspan></text>
<text xml:space="preserve" transform="matrix(1 0 -0 1 -.000015258789 386.54)" font-size="4.98132" font-family="CMR5"><tspan y="-37.691" x="198.253">7</tspan></text>
<text xml:space="preserve" transform="matrix(1 0 -0 1 -.000015258789 386.53999)" font-size="4.98132" font-family="CMSY5" font-style="italic"><tspan y="-61.434" x="192.856">&#x2212;</tspan></text>
<text xml:space="preserve" transform="matrix(1 0 -0 1 -.000015258789 386.53999)" font-size="4.98132" font-family="CMR5"><tspan y="-61.434" x="198.253">6</tspan></text>
<text xml:space="preserve" transform="matrix(1 0 -0 1 -.000015258789 386.54)" font-size="4.98132" font-family="CMSY5" font-style="italic"><tspan y="-85.178" x="192.856">&#x2212;</tspan></text>
<text xml:space="preserve" transform="matrix(1 0 -0 1 -.000015258789 386.54)" font-size="4.98132" font-family="CMR5"><tspan y="-85.178" x="198.253">5</tspan></text>
<text xml:space="preserve" transform="matrix(1 0 -0 1 -.000015258789 386.54)" font-size="4.98132" font-family="CMSY5" font-style="italic"><tspan y="-108.922" x="192.856">&#x2212;</tspan></text>
<text xml:space="preserve" transform="matrix(1 0 -0 1 -.000015258789 386.54)" font-size="4.98132" font-family="CMR5"><tspan y="-108.922" x="198.253">4</tspan></text>
<text xml:space="preserve" transform="matrix(1 0 -0 1 -.000015258789 386.53999)" font-size="4.98132" font-family="CMSY5" font-style="italic"><tspan y="-132.665" x="192.856">&#x2212;</tspan></text>
<text xml:space="preserve" transform="matrix(1 0 -0 1 -.000015258789 386.53999)" font-size="4.98132" font-family="CMR5"><tspan y="-132.665" x="198.253">3</tspan></text>
<text xml:space="preserve" transform="matrix(1 0 -0 1 -.000015258789 386.53999)" font-size="4.98132" font-family="CMSY5" font-style="italic"><tspan y="-156.409" x="192.856">&#x2212;</tspan></text>
<text xml:space="preserve" transform="matrix(1 0 -0 1 -.000015258789 386.53999)" font-size="4.98132" font-family="CMR5"><tspan y="-156.409" x="198.253">2</tspan></text>
<text xml:space="preserve" transform="matrix(1 0 -0 1 -.000015258789 386.53999)" font-size="4.98132" font-family="CMSY5" font-style="italic"><tspan y="-180.153" x="192.856">&#x2212;</tspan></text>
<text xml:space="preserve" transform="matrix(1 0 -0 1 -.000015258789 386.53999)" font-size="4.98132" font-family="CMR5"><tspan y="-180.153" x="198.253">1</tspan></text>
<text xml:space="preserve" transform="matrix(1 0 -0 1 -.000015258789 386.54)" font-size="4.98132" font-family="CMR5"><tspan y="-203.537" x="198.253">0</tspan></text>
<text xml:space="preserve" transform="matrix(1 0 -0 1 -.000015258789 386.53999)" font-size="4.98132" font-family="CMR5"><tspan y="-227.28" x="198.253">1</tspan></text>
<text xml:space="preserve" transform="matrix(1 0 -0 1 -.000015258789 386.54)" font-size="4.98132" font-family="CMR5"><tspan y="-251.024" x="198.253">2</tspan></text>
<text xml:space="preserve" transform="matrix(1 0 -0 1 -.000015258789 386.54)" font-size="4.98132" font-family="CMR5"><tspan y="-274.768" x="198.253">3</tspan></text>
<text xml:space="preserve" transform="matrix(1 0 -0 1 -.000015258789 386.53999)" font-size="4.98132" font-family="CMR5"><tspan y="-298.511" x="198.253">4</tspan></text>
<text xml:space="preserve" transform="matrix(1 0 -0 1 -.000015258789 386.54)" font-size="4.98132" font-family="CMR5"><tspan y="-322.255" x="198.253">5</tspan></text>
<text xml:space="preserve" transform="matrix(1 0 -0 1 -.000015258789 386.54)" font-size="4.98132" font-family="CMR5"><tspan y="-345.999" x="198.253">6</tspan></text>
<text xml:space="preserve" transform="matrix(1 0 -0 1 -.000015258789 386.54)" font-size="4.98132" font-family="CMR5"><tspan y="-369.742" x="198.253">7</tspan></text>
<path transform="matrix(1,0,0,-1,3.083,383.457)" stroke-width=".3985" stroke-linecap="butt" stroke-miterlimit="10" stroke-linejoin="miter" fill="none" stroke="#cbcbcb" d="M .23743 0 L .23743 380.3784 M 23.9814 0 L 23.9814 380.3784 M 47.72537 0 L 47.72537 380.3784 M 71.46935 0 L 71.46935 380.3784 M 95.21332 0 L 95.21332 380.3784 M 118.95728 0 L 118.95728 380.3784 M 142.70125 0 L 142.70125 380.3784 M 166.44522 0 L 166.44522 380.3784 M 190.1892 0 L 190.1892 380.3784 M 213.93317 0 L 213.93317 380.3784 M 237.67714 0 L 237.67714 380.3784 M 261.4211 0 L 261.4211 380.3784 M 285.16508 0 L 285.16508 380.3784 M 308.90904 0 L 308.90904 380.3784 M 332.653 0 L 332.653 380.3784 M 356.397 0 L 356.397 380.3784 M 380.14097 0 L 380.14097 380.3784 "/>
<path transform="matrix(1,0,0,-1,3.083,383.457)" stroke-width=".3985" stroke-linecap="butt" stroke-miterlimit="10" stroke-linejoin="miter" fill="none" stroke="#cbcbcb" d="M 0 .23743 L 380.3784 .23743 M 0 23.9814 L 380.3784 23.9814 M 0 47.72537 L 380.3784 47.72537 M 0 71.46935 L 380.3784 71.46935 M 0 95.21332 L 380.3784 95.21332 M 0 118.95728 L 380.3784 118.95728 M 0 142.70125 L 380.3784 142.70125 M 0 166.44522 L 380.3784 166.44522 M 0 190.1892 L 380.3784 190.1892 M 0 213.93317 L 380.3784 213.93317 M 0 237.67714 L 380.3784 237.67714 M 0 261.4211 L 380.3784 261.4211 M 0 285.16508 L 380.3784 285.16508 M 0 308.90904 L 380.3784 308.90904 M 0 332.653 L 380.3784 332.653 M 0 356.397 L 380.3784 356.397 M 0 380.14097 L 380.3784 380.14097 "/>
<path transform="matrix(1,0,0,-1,3.083,383.457)" stroke-width=".19925" stroke-linecap="butt" stroke-miterlimit="10" stroke-linejoin="miter" fill="none" stroke="#929292" d="M .23743 199.93529 L .23743 204.18706 M 23.9814 199.93529 L 23.9814 204.18706 M 47.72537 199.93529 L 47.72537 204.18706 M 71.46935 199.93529 L 71.46935 204.18706 M 95.21332 199.93529 L 95.21332 204.18706 M 118.95728 199.93529 L 118.95728 204.18706 M 142.70125 199.93529 L 142.70125 204.18706 M 166.44522 199.93529 L 166.44522 204.18706 M 190.1892 199.93529 L 190.1892 204.18706 M 213.93317 199.93529 L 213.93317 204.18706 M 237.67714 199.93529 L 237.67714 204.18706 M 261.4211 199.93529 L 261.4211 204.18706 M 285.16508 199.93529 L 285.16508 204.18706 M 308.90904 199.93529 L 308.90904 204.18706 M 332.653 199.93529 L 332.653 204.18706 M 356.397 199.93529 L 356.397 204.18706 M 380.14097 199.93529 L 380.14097 204.18706 "/>
<path transform="matrix(1,0,0,-1,3.083,383.457)" stroke-width=".19925" stroke-linecap="butt" stroke-miterlimit="10" stroke-linejoin="miter" fill="none" stroke="#929292" d="M 199.93529 .23743 L 204.18706 .23743 M 199.93529 23.9814 L 204.18706 23.9814 M 199.93529 47.72537 L 204.18706 47.72537 M 199.93529 71.46935 L 204.18706 71.46935 M 199.93529 95.21332 L 204.18706 95.21332 M 199.93529 118.95728 L 204.18706 118.95728 M 199.93529 142.70125 L 204.18706 142.70125 M 199.93529 166.44522 L 204.18706 166.44522 M 199.93529 190.1892 L 204.18706 190.1892 M 199.93529 213.93317 L 204.18706 213.93317 M 199.93529 237.67714 L 204.18706 237.67714 M 199.93529 261.4211 L 204.18706 261.4211 M 199.93529 285.16508 L 204.18706 285.16508 M 199.93529 308.90904 L 204.18706 308.90904 M 199.93529 332.653 L 204.18706 332.653 M 199.93529 356.397 L 204.18706 356.397 M 199.93529 380.14097 L 204.18706 380.14097 "/>
<path transform="matrix(1,0,0,-1,3.083,383.457)" stroke-width=".19925" stroke-linecap="butt" stroke-miterlimit="10" stroke-linejoin="miter" fill="none" stroke="#929292" d="M 12.10942 199.93529 L 12.10942 204.18706 M 35.8534 199.93529 L 35.8534 204.18706 M 59.59735 199.93529 L 59.59735 204.18706 M 83.34132 199.93529 L 83.34132 204.18706 M 107.0853 199.93529 L 107.0853 204.18706 M 130.82927 199.93529 L 130.82927 204.18706 M 154.57324 199.93529 L 154.57324 204.18706 M 178.31722 199.93529 L 178.31722 204.18706 M 202.06118 199.93529 L 202.06118 204.18706 M 225.80515 199.93529 L 225.80515 204.18706 M 249.54912 199.93529 L 249.54912 204.18706 M 273.2931 199.93529 L 273.2931 204.18706 M 297.03706 199.93529 L 297.03706 204.18706 M 320.781 199.93529 L 320.781 204.18706 M 344.525 199.93529 L 344.525 204.18706 M 368.26899 199.93529 L 368.26899 204.18706 "/>
<path transform="matrix(1,0,0,-1,3.083,383.457)" stroke-width=".19925" stroke-linecap="butt" stroke-miterlimit="10" stroke-linejoin="miter" fill="none" stroke="#929292" d="M 199.93529 12.10942 L 204.18706 12.10942 M 199.93529 35.8534 L 204.18706 35.8534 M 199.93529 59.59735 L 204.18706 59.59735 M 199.93529 83.34132 L 204.18706 83.34132 M 199.93529 107.0853 L 204.18706 107.0853 M 199.93529 130.82927 L 204.18706 130.82927 M 199.93529 154.57324 L 204.18706 154.57324 M 199.93529 178.31722 L 204.18706 178.31722 M 199.93529 202.06118 L 204.18706 202.06118 M 199.93529 225.80515 L 204.18706 225.80515 M 199.93529 249.54912 L 204.18706 249.54912 M 199.93529 273.2931 L 204.18706 273.2931 M 199.93529 297.03706 L 204.18706 297.03706 M 199.93529 320.781 L 204.18706 320.781 M 199.93529 344.525 L 204.18706 344.525 M 199.93529 368.26899 L 204.18706 368.26899 "/>
<path transform="matrix(1,0,0,-1,3.083,383.457)" stroke-width=".3985" stroke-linecap="butt" stroke-miterlimit="10" stroke-linejoin="miter" fill="none" stroke="#000000" d="M 0 202.06118 L 379.9799 202.06118 "/>
<path transform="matrix(1,0,0,-1,383.26216,181.39583)" stroke-width=".3985" stroke-linecap="round" stroke-linejoin="round" fill="none" stroke="#000000" d="M -2.07224 2.39104 C -1.69365 .95639 -.84999 .27895 0 0 C -.84999 -.27895 -1.69365 -.95639 -2.07224 -2.39104 "/>
<path transform="matrix(1,0,0,-1,3.083,383.457)" stroke-width=".3985" stroke-linecap="butt" stroke-miterlimit="10" stroke-linejoin="miter" fill="none" stroke="#000000" d="M 202.06118 0 L 202.06118 379.9799 "/>
<path transform="matrix(0,-1,-1,-0,205.14417,3.2778626)" stroke-width=".3985" stroke-linecap="round" stroke-linejoin="round" fill="none" stroke="#000000" d="M -2.07224 2.39104 C -1.69365 .95639 -.84999 .27895 0 0 C -.84999 -.27895 -1.69365 -.95639 -2.07224 -2.39104 "/>
</g>
</svg>
