<?xml version="1.0" encoding="UTF-8"?>
<svg version="1.1" viewBox="0 0 600 320" xmlns="http://www.w3.org/2000/svg">
<path d="m90.9 249.13c-3.3462-1.6111-9.047-3.7179-17.35-6.0726-4.3376-1.2393-6.1966-2.6026-5.7009-3.9658 0.2479-1.859 3.5941-3.3461 9.9145-4.3376 6.4445 0 13.013 0.24786 19.457 0.61965 5.4529 0.3718 9.9145 0.99145 13.261 1.6111 3.594 0.74359 5.5769 2.1068 6.3205 3.7179 0.6197 1.1154 0.6197 3.0983 0 5.7008l-0.2479 4.4615 0.2479 38.171c0 3.594 1.2393 5.9487 3.4701 7.5598 2.2307 1.4872 6.0726 2.3547 11.526 2.7265l56.513-0.61966c4.3376-0.37179 8.0556-1.2393 10.906-2.1068 1.859-0.37179 3.8419-1.2393 5.7008-2.4786 3.0983-1.859 5.8248-3.0983 8.5513-3.4701 4.5854-1.1154 11.774-1.3632 21.316-0.99145 4.5854 0.24786 8.5512 1.2393 11.526 3.0983 2.6025 1.6111 4.3376 3.7179 4.8333 6.0726 0.3718 2.1068-0.1239 3.8419-1.6111 5.329-1.6111 1.6111-3.9658 2.4786-6.6923 2.6026h-111.79c-11.154-0.24786-19.209-1.859-24.167-4.8333-5.7008-3.2222-8.6752-8.5512-9.047-15.739l-1.1154-30.239c0-2.4786-1.9829-4.9572-5.8247-6.8162z"/>
<path d="m395.7 206.99c-1.2394 0.3718-2.6026 0.74359-4.3376 1.2393-3.3462 1.2393-6.0727 1.6111-8.5513 1.2393-3.594-0.61966-9.2948-2.9744-17.598-6.6923-5.8248-3.3462-8.9231-5.7008-9.047-7.312-0.3718-1.6111 1.6111-2.1068 5.7008-1.2393 13.88 1.859 34.453 2.6026 61.842 2.4786 25.406-0.24787 49.201-1.2393 71.508-2.7265 1.2393-0.24786 2.4786-0.49573 3.7179-0.86752 0.61966 0 1.4872-0.24786 2.4786-0.61966 1.2393-0.37179 2.4786-0.61965 3.7179-0.99145 1.859-0.24786 4.4615-0.12393 8.0555 0.24787 8.0555 0.37179 12.889 1.4872 14.252 3.0983 0.61966 1.2393-0.12393 3.3461-2.1068 6.0726l-2.1068 3.9658-9.9145 33.957c8.5513 1.2393 13.137 3.4701 13.632 6.3205 0.37179 3.594-3.2222 5.2051-10.658 5.2051l-114.88 1.3632-2.4786 1.6111c-0.7436 0.37179-1.3633 0.74358-1.6111 1.2393-0.3718 0.37179-0.6197 0.99145-0.6197 1.6111l0.2479 29.124c0 2.6026 0.6196 4.4615 2.1068 5.7008 1.4872 1.1154 4.0897 1.6111 7.9316 1.6111h81.175c4.0897-0.37179 7.4359-1.1154 9.9145-1.859 1.6111-0.37179 3.594-1.3632 5.7008-2.7265 2.6026-1.4872 5.2051-2.3547 7.5598-2.8504 3.7179-0.74358 8.7991-1.1154 15.491-0.61965 5.7008 0.37179 10.162 1.4872 13.632 3.0983 3.3461 1.6111 5.0812 3.594 5.453 5.453 0.61966 2.1068 0 3.7179-1.859 4.8333-2.1068 1.859-4.5854 2.8504-7.9316 2.8504h-132.23c-8.0555 0-14.5-1.4872-19.209-4.3376-4.5855-3.0983-7.0641-7.4359-7.0641-13.137v-27.513c-0.6197-1.859-3.0983-3.8419-7.0641-5.7008-3.0983-1.859-6.4444-3.3461-10.41-4.3376-3.9658-1.4872-6.0727-2.6026-6.6923-3.7179-0.3718-1.4872 2.6025-2.4786 8.7991-3.0983 8.6752 0.24786 16.979 1.1154 24.662 2.3547 6.9402 1.1154 11.402 2.1068 13.632 3.3462l78.448-1.6111c2.9743-0.24786 5.329-0.49572 7.6837-0.86752 1.859-0.24786 4.0897-0.61965 6.6923-1.2393l7.5598-1.2393 1.859-38.295-101.62 4.3376c-1.3632 0.24786-3.47 0.61966-5.4529 1.2393z"/>
<g fill="#f00">
<path d="m453.1 64.59c-21.068 0.99145-37.923 1.735-50.936 2.4786-2.9744 0.24786-5.3291 0.61966-7.5598 1.6111-1.2393 0.37179-2.7265 1.1154-4.4616 1.859-3.3461 1.6111-6.1965 2.1068-9.0469 1.6111-4.0898-1.1154-11.65-4.3376-22.68-9.7906-5.0811-2.9744-7.6837-5.0812-7.6837-6.6923 0-1.859 3.0983-2.1068 9.047-0.61965 13.508 1.859 33.957 2.9744 61.346 2.9744 18.838-0.24787 46.35-1.1154 82.538-2.3547 1.859-0.24786 3.594-0.61965 4.8333-1.2393 0.74359-0.24786 2.1068-0.61966 3.7179-1.2393 2.1068-0.74359 3.9658-1.3632 5.7008-1.6111 3.0983-0.24786 7.4359 0.12393 13.261 0.86752 6.9402 1.1154 10.906 2.4786 11.897 4.3376 0.3718 1.2393-0.49572 3.3462-2.8504 5.9487-1.1154 1.2393-1.735 2.1068-2.1068 2.7265-0.61965 0.74359-1.1154 1.735-1.2393 2.7265-2.6026 10.782-6.9402 24.043-12.889 39.906-5.0812 13.261-10.534 26.397-16.111 39.534l-9.4188 1.1154c3.9658-11.773 7.5598-25.406 10.906-40.897 3.7179-15.12 5.9487-27.265 7.0641-36.188l1.735-8.1795c-17.598-0.24786-39.41 0.24786-65.064 1.1154z"/>
<path d="m70.2 70.91c-3.7179-2.2308-7.6837-5.0812-11.773-8.6752-2.9744-2.6026-4.0898-4.3376-3.718-5.453 0.3718-1.2393 3.8419-1.2393 9.9145 0.24787 6.4445 0.74358 12.765 1.3632 18.59 1.6111 8.3034 0.3718 20.944 0.49573 37.675 0.24787 4.3376 0.24786 7.6838 1.2393 9.9145 2.7265 2.2308 1.4872 3.3462 3.2222 3.0983 5.2051-0.2479 1.859-1.735 3.594-4.4615 4.8333-3.0983 1.4872-7.188 2.2308-12.517 2.4786l-36.312 0.99145c-2.8505-0.24786-6.1966-1.735-10.41-4.2137z"/>
<path d="m140 98.68c1.2394-0.61965 2.7265-1.4872 4.4616-2.4786 2.2307-1.4872 4.3376-2.4786 6.6923-3.0983 3.594-0.74359 8.6751-1.2393 15.491-1.2393 4.8333 0 8.7991 0.99145 11.773 2.7265 2.4787 1.4872 3.8419 3.3462 3.9658 5.453 0.2479 2.1068-0.7436 3.8419-3.0982 5.329-2.4787 1.6111-5.7009 2.3547-9.6667 2.3547-16.855 0.24787-29.496 0.49573-37.799 0.86752-12.889 0.3718-22.679 1.1154-30.239 1.859 3.5941 4.0897 5.453 7.0641 6.0727 8.923 0.6196 1.2393 0.4957 2.6026-0.2479 4.3376l-0.6196 3.4701c17.226 2.2308 30.363 8.1795 39.534 17.97 8.0556 9.047 11.526 19.209 10.534 30.611-1.2393 11.402-6.8162 21.068-16.731 28.752-10.782 8.5512-24.167 12.889-40.65 12.889-16.979 0-31.107-4.3376-42.013-12.889-9.9145-7.6837-15.491-17.35-16.979-28.752-1.4871-11.402 2.1069-21.688 10.41-30.239 9.2948-9.9145 22.679-15.987 40.773-18.342 2.4787-2.1068 3.5941-4.4615 3.0983-7.5598-0.3718-2.9744-1.9829-5.5769-4.4615-8.1795-5.453 0-11.402 0.24786-17.474 0.99145-6.1966 0.3718-13.261 1.2393-21.192 2.1068-1.6112 0.24787-3.0983 0.49573-4.3376 0.86752-0.7436 0.3718-1.7351 0.99145-2.7265 1.6111-2.6026 1.2393-5.2051 1.6111-7.5598 0.86752-3.594-1.1154-9.9145-4.3376-19.829-9.7906-5.3291-3.0983-7.6838-5.329-7.0641-6.6923 0.6196-1.4872 4.2136-1.6111 10.658-0.24786 13.013 2.1068 27.265 3.2222 43.004 3.2222 14.996 0 37.675-1.1154 68.038-3.2222 3.3461-0.99145 5.9487-1.6111 8.1794-2.4786zm-71.756 48.457c-6.6922 6.1966-10.038 14.128-10.038 23.299 0 9.1709 3.4701 16.855 10.038 23.299 7.312 7.188 17.35 10.782 30.239 10.782 12.641 0 22.556-3.594 30.239-10.782 6.6923-6.4444 10.038-14.252 10.038-23.299 0-9.4188-3.47-17.103-10.038-23.299-7.5598-7.188-17.474-10.782-30.239-10.782-13.013 0-22.927 3.4701-30.239 10.782z"/>
</g>
<g fill="#00f">
<path d="m195.2 48.86c-4.4616-3.3461-10.906-6.6923-19.457-9.9145-5.4529-2.1068-7.9316-3.9658-7.3119-5.453 0.3718-1.859 4.2137-2.9744 11.278-3.0983 5.7009 0.24787 11.65 1.2393 17.97 2.7265 3.7179 1.1154 9.047 2.6026 16.111 4.8333l0.6197 0.24786c4.0897 1.2393 6.6923 2.7265 7.6837 4.4615 0.6197 1.1154 0.6197 3.0983 0 6.0726l-0.2478 5.453-0.2479 109.31 16.111-0.99145c2.4786-0.3718 4.4615-1.1154 6.0726-1.859 1.1154-0.3718 2.3547-1.2393 3.9658-2.4786 2.2308-1.4872 4.4615-2.4786 6.6923-3.0983 3.9658-1.1154 9.2949-1.3632 16.483-0.86752 3.9658 0.24786 7.064 1.2393 9.4187 2.7265 2.2308 1.4872 3.594 3.2222 3.718 5.2051 0.2478 2.1068-0.4957 3.8419-2.1069 5.2051-1.8589 1.859-4.3375 3.0983-7.3119 3.4701l-53.043 0.86752c-0.2478 19.953-0.7436 34.949-1.859 45.111-0.7435 8.3034-2.1068 14.996-3.7179 20.201-3.0983 6.6923-5.8248 10.162-8.5512 10.658-3.3462 0.37179-4.8334-4.3376-4.8334-13.88v-175.61c-0.4957-2.8504-2.9743-6.1966-7.4358-9.2948z"/>
<path d="m539.44 139.57c1.859-0.61966 4.3376-1.6111 7.3119-2.7265 3.0983-1.6111 5.9487-2.6026 8.7991-3.0983 4.0897-0.74359 9.9145-0.61966 17.598 0.24786 5.0812 0.3718 9.1709 1.6111 12.517 3.7179 2.6026 1.6111 4.0897 3.594 4.3376 5.7008 0.24787 2.4786-1.1154 4.3376-3.7179 5.453-3.0983 1.4872-7.0641 1.9829-11.773 1.6111-21.068-0.37179-58.248 0-111.54 1.2393-54.282 1.1154-84.893 2.2308-92.701 3.7179-1.8589 0.24787-3.7179 0.61966-5.4529 1.2393-1.1154 0.37179-2.2308 0.86751-3.718 1.6111-3.7179 1.6111-7.4358 2.1068-11.278 1.2393-4.8333-1.1154-14.748-4.8333-29.744-11.526-5.8248-3.3462-8.1795-5.5769-7.188-7.0641 1.1153-1.4872 3.8418-1.6111 8.1794-0.61965 21.44 3.0983 50.192 4.4615 86.38 4.4615 24.043-0.24786 64.072-1.3632 119.72-3.4701 4.9572-0.12393 8.923-0.74359 12.269-1.735z"/>
</g>
<g font-family="DejaVu Sans" font-size="30px" font-weight="bold" text-anchor="middle">
<switch transform="translate(94 51)">
<text systemLanguage="be, bg">х</text>
<text systemLanguage="ckb, fa">ه</text>
<text systemLanguage="hy">հ</text>
<text systemLanguage="qmr">h</text>
<text systemLanguage="qqq"></text>
<text systemLanguage="ru">х</text>
<text systemLanguage="rue">г</text>
<text systemLanguage="uk">х</text>
<text systemLanguage="yi">ה</text>
<text>h</text>
</switch>
<switch transform="translate(209 27)">
<text systemLanguage="be, bg, ru, rue, uk">а</text>
<text systemLanguage="ckb" x="30" y="50">ا</text>
<text systemLanguage="fa" x="30" y="50">اَ</text>
<text systemLanguage="hy">ա</text>
<text systemLanguage="qqq"></text>
<text systemLanguage="yi">אַ</text>
<text>a</text>
</switch>
<switch transform="translate(170 291)">
<text systemLanguage="be, bg, ru, rue, uk">н</text>
<text systemLanguage="ckb, fa" y="-4">ن</text>
<text systemLanguage="hy">ն</text>
<text systemLanguage="qqq"></text>
<text systemLanguage="yi">נ</text>
<text>n</text>
</switch>
<switch transform="translate(450 46)">
<text systemLanguage="be, bg, ru">г/к</text>
<text systemLanguage="ckb, fa">گ/ک</text>
<text systemLanguage="hy">գ/կ</text>
<text systemLanguage="qqq"></text>
<text systemLanguage="rue, uk">ґ/к</text>
<text systemLanguage="yi">ג/ק</text>
<text>g/k</text>
</switch>
<switch transform="translate(451 138)">
<text systemLanguage="be, ru, rue">ы</text>
<text systemLanguage="bg">ъ</text>
<text systemLanguage="ckb, fa" y="-6">و</text>
<text systemLanguage="hy" y="-4">ը</text>
<text systemLanguage="qmr">ŭ</text>
<text systemLanguage="qqq"></text>
<text systemLanguage="ro" x="-15">eu (î)</text>
<text systemLanguage="uk">и</text>
<text systemLanguage="yi">ו</text>
<text>eu</text>
</switch>
<switch transform="translate(451 286)">
<text systemLanguage="be, ru, uk">р/ль</text>
<text systemLanguage="bg, rue">р/л</text>
<text systemLanguage="ckb, fa" y="-4">ر/ل</text>
<text systemLanguage="hy" y="-4">ր/լ</text>
<text systemLanguage="qqq"></text>
<text systemLanguage="yi">ר/ל</text>
<text>r/l</text>
</switch>
</g>
</svg>
