<?xml version="1.0" encoding="UTF-8" standalone="no"?>
<!DOCTYPE svg PUBLIC "-//W3C//DTD SVG 1.1//EN" "http://www.w3.org/Graphics/SVG/1.1/DTD/svg11.dtd">
<svg xmlns="http://www.w3.org/2000/svg" xmlns:xlink="http://www.w3.org/1999/xlink" version="1.1" width="438.817pt" height="104.829pt" viewBox="0 0 438.817 104.829">
<g enable-background="new">
<path transform="matrix(1,0,0,-1,2.089,70.12)" d="M -1.88986 -18.89757 L -1.88986 23.62195 L 200.31449 23.62195 L 200.31449 -18.89757 Z M 200.31449 23.62195 " fill="#ffffff"/>
<path transform="matrix(1,0,0,-1,2.089,70.12)" stroke-width=".3985" stroke-linecap="butt" stroke-miterlimit="10" stroke-linejoin="miter" fill="none" stroke="#000000" d="M -1.88986 -18.89757 L -1.88986 23.62195 L 200.31449 23.62195 L 200.31449 -18.89757 Z M 200.31449 23.62195 "/>
<text xml:space="preserve" transform="matrix(1 0 -0 1 0 104.829)" font-size="9.96264" font-family="CMUTypewriter"><tspan y="-3.321" x="96.796">D</tspan></text>
<path transform="matrix(1,0,0,-1,2.089,70.12)" d="M 0 0 L 0 18.89757 L 75.59033 18.89757 L 75.59033 0 Z M 75.59033 18.89757 " fill="#ffffff"/>
<path transform="matrix(1,0,0,-1,2.089,70.12)" stroke-width=".3985" stroke-linecap="butt" stroke-miterlimit="10" stroke-linejoin="miter" fill="none" stroke="#000000" d="M 0 0 L 0 18.89757 L 75.59033 18.89757 L 75.59033 0 Z M 75.59033 18.89757 "/>
<text xml:space="preserve" transform="matrix(1 0 -0 1 0 104.829)" font-size="9.96264" font-family="CMUTypewriter"><tspan y="-22.218" x="37.269">B</tspan></text>
<path transform="matrix(1,0,0,-1,2.089,70.12)" d="M 85.03911 0 L 85.03911 18.89757 L 160.62944 18.89757 L 160.62944 0 Z M 160.62944 18.89757 " fill="#ffffff"/>
<path transform="matrix(1,0,0,-1,2.089,70.12)" stroke-width=".3985" stroke-linecap="butt" stroke-miterlimit="10" stroke-linejoin="miter" fill="none" stroke="#000000" d="M 85.03911 0 L 85.03911 18.89757 L 160.62944 18.89757 L 160.62944 0 Z M 160.62944 18.89757 "/>
<text xml:space="preserve" transform="matrix(1 0 -0 1 0 104.829)" font-size="9.96264" font-family="CMUTypewriter"><tspan y="-22.218" x="122.307">C</tspan></text>
<path transform="matrix(1,0,0,-1,2.089,70.12)" d="M 1.88986 9.44876 L 39.68501 9.44876 M 1.88986 17.00768 L 39.68501 17.00768 M 1.88986 9.44876 L 1.88986 17.00797 M 9.44876 9.44876 L 9.44876 17.00797 M 17.00768 9.44876 L 17.00768 17.00797 M 24.5666 9.44876 L 24.5666 17.00797 M 32.12552 9.44876 L 32.12552 17.00797 M 39.68443 9.44876 L 39.68443 17.00797 M 39.68501 17.00797 " fill="#ffffff"/>
<path transform="matrix(1,0,0,-1,2.089,70.12)" stroke-width=".3985" stroke-linecap="butt" stroke-miterlimit="10" stroke-linejoin="miter" fill="none" stroke="#000000" d="M 1.88986 9.44876 L 39.68501 9.44876 M 1.88986 17.00768 L 39.68501 17.00768 M 1.88986 9.44876 L 1.88986 17.00797 M 9.44876 9.44876 L 9.44876 17.00797 M 17.00768 9.44876 L 17.00768 17.00797 M 24.5666 9.44876 L 24.5666 17.00797 M 32.12552 9.44876 L 32.12552 17.00797 M 39.68443 9.44876 L 39.68443 17.00797 M 39.68501 17.00797 "/>
<path transform="matrix(1,0,0,-1,2.089,70.12)" d="M 86.92899 9.44876 L 124.72414 9.44876 M 86.92899 17.00768 L 124.72414 17.00768 M 86.92899 9.44876 L 86.92899 17.00797 M 94.48788 9.44876 L 94.48788 17.00797 M 102.0468 9.44876 L 102.0468 17.00797 M 109.60573 9.44876 L 109.60573 17.00797 M 117.16463 9.44876 L 117.16463 17.00797 M 124.72356 9.44876 L 124.72356 17.00797 M 124.72414 17.00797 " fill="#ffffff"/>
<path transform="matrix(1,0,0,-1,2.089,70.12)" stroke-width=".3985" stroke-linecap="butt" stroke-miterlimit="10" stroke-linejoin="miter" fill="none" stroke="#000000" d="M 86.92899 9.44876 L 124.72414 9.44876 M 86.92899 17.00768 L 124.72414 17.00768 M 86.92899 9.44876 L 86.92899 17.00797 M 94.48788 9.44876 L 94.48788 17.00797 M 102.0468 9.44876 L 102.0468 17.00797 M 109.60573 9.44876 L 109.60573 17.00797 M 117.16463 9.44876 L 117.16463 17.00797 M 124.72356 9.44876 L 124.72356 17.00797 M 124.72414 17.00797 "/>
<path transform="matrix(1,0,0,-1,2.089,70.12)" d="M 209.76329 -18.89757 L 209.76329 23.62195 L 247.55846 23.62195 L 247.55846 -18.89757 Z M 247.55846 23.62195 " fill="#ffffff"/>
<path transform="matrix(1,0,0,-1,2.089,70.12)" stroke-width=".3985" stroke-linecap="butt" stroke-miterlimit="10" stroke-linejoin="miter" fill="none" stroke="#000000" d="M 209.76329 -18.89757 L 209.76329 23.62195 L 247.55846 23.62195 L 247.55846 -18.89757 Z M 247.55846 23.62195 "/>
<text xml:space="preserve" transform="matrix(1 0 -0 1 0 104.828998)" font-size="9.96264" font-family="CMUTypewriter"><tspan y="-33.968" x="225.518 230.7484">A1</tspan></text>
<path transform="matrix(1,0,0,-1,2.089,70.12)" d="M 257.00727 -18.89757 L 257.00727 23.62195 L 294.8024 23.62195 L 294.8024 -18.89757 Z M 294.8024 23.62195 " fill="#ffffff"/>
<path transform="matrix(1,0,0,-1,2.089,70.12)" stroke-width=".3985" stroke-linecap="butt" stroke-miterlimit="10" stroke-linejoin="miter" fill="none" stroke="#000000" d="M 257.00727 -18.89757 L 257.00727 23.62195 L 294.8024 23.62195 L 294.8024 -18.89757 Z M 294.8024 23.62195 "/>
<text xml:space="preserve" transform="matrix(1 0 -0 1 0 104.828998)" font-size="9.96264" font-family="CMUTypewriter"><tspan y="-33.968" x="272.761 277.99137">A2</tspan></text>
<path transform="matrix(1,0,0,-1,2.089,70.12)" d="M 304.25123 -18.89757 L 304.25123 23.62195 L 342.0464 23.62195 L 342.0464 -18.89757 Z M 342.0464 23.62195 " fill="#ffffff"/>
<path transform="matrix(1,0,0,-1,2.089,70.12)" stroke-width=".3985" stroke-linecap="butt" stroke-miterlimit="10" stroke-linejoin="miter" fill="none" stroke="#000000" d="M 304.25123 -18.89757 L 304.25123 23.62195 L 342.0464 23.62195 L 342.0464 -18.89757 Z M 342.0464 23.62195 "/>
<text xml:space="preserve" transform="matrix(1 0 -0 1 0 104.828998)" font-size="9.96264" font-family="CMUTypewriter"><tspan y="-34.024" x="320.004 325.23439">A3</tspan></text>
<path transform="matrix(1,0,0,-1,2.089,70.12)" d="M 351.49516 -18.89757 L 351.49516 23.62195 L 389.29035 23.62195 L 389.29035 -18.89757 Z M 389.29035 23.62195 " fill="#ffffff"/>
<path transform="matrix(1,0,0,-1,2.089,70.12)" stroke-width=".3985" stroke-linecap="butt" stroke-miterlimit="10" stroke-linejoin="miter" fill="none" stroke="#000000" d="M 351.49516 -18.89757 L 351.49516 23.62195 L 389.29035 23.62195 L 389.29035 -18.89757 Z M 389.29035 23.62195 "/>
<text xml:space="preserve" transform="matrix(1 0 -0 1 0 104.828998)" font-size="9.96264" font-family="CMUTypewriter"><tspan y="-33.968" x="367.248 372.47837">A4</tspan></text>
<path transform="matrix(1,0,0,-1,2.089,70.12)" d="M 398.73915 -18.89757 L 398.73915 23.62195 L 436.5343 23.62195 L 436.5343 -18.89757 Z M 436.5343 23.62195 " fill="#ffffff"/>
<path transform="matrix(1,0,0,-1,2.089,70.12)" stroke-width=".3985" stroke-linecap="butt" stroke-miterlimit="10" stroke-linejoin="miter" fill="none" stroke="#000000" d="M 398.73915 -18.89757 L 398.73915 23.62195 L 436.5343 23.62195 L 436.5343 -18.89757 Z M 436.5343 23.62195 "/>
<text xml:space="preserve" transform="matrix(1 0 -0 1 0 104.828998)" font-size="9.96264" font-family="CMUTypewriter"><tspan y="-34.024" x="414.491 419.72138">A5</tspan></text>
<path transform="matrix(1,0,0,-1,2.089,70.12)" stroke-width=".3985" stroke-linecap="butt" stroke-miterlimit="10" stroke-linejoin="miter" fill="none" stroke="#0000ff" d="M 5.66931 13.22824 L 5.66931 32.12582 L 228.69109 32.12582 L 228.69109 24.022 "/>
<path transform="matrix(0,1,1,0,230.78009,46.297254)" stroke-width=".3985" stroke-linecap="round" stroke-linejoin="round" fill="none" stroke="#0000ff" d="M -2.07224 2.39104 C -1.69365 .95639 -.84999 .27895 0 0 C -.84999 -.27895 -1.69365 -.95639 -2.07224 -2.39104 "/>
<path transform="matrix(1,0,0,-1,2.089,70.12)" stroke-width=".3985" stroke-linecap="butt" stroke-miterlimit="10" stroke-linejoin="miter" fill="none" stroke="#0000ff" d="M 90.70844 13.22824 L 90.70844 32.12582 "/>
<path transform="matrix(1,0,0,-1,2.089,70.12)" stroke-width=".3985" stroke-linecap="butt" stroke-miterlimit="10" stroke-linejoin="miter" fill="none" stroke="#008060" d="M 13.22824 13.22824 L 13.22824 41.5746 L 275.9413 41.5746 L 275.9413 24.022 "/>
<path transform="matrix(0,1,1,0,278.0303,46.297254)" stroke-width=".3985" stroke-linecap="round" stroke-linejoin="round" fill="none" stroke="#008060" d="M -2.07224 2.39104 C -1.69365 .95639 -.84999 .27895 0 0 C -.84999 -.27895 -1.69365 -.95639 -2.07224 -2.39104 "/>
<path transform="matrix(1,0,0,-1,2.089,70.12)" stroke-width=".3985" stroke-linecap="butt" stroke-miterlimit="10" stroke-linejoin="miter" fill="none" stroke="#008060" d="M 98.26738 13.22824 L 98.26738 41.5746 "/>
<path transform="matrix(1,0,0,-1,2.089,70.12)" stroke-width=".3985" stroke-linecap="butt" stroke-miterlimit="10" stroke-linejoin="miter" fill="none" stroke="#ff0000" d="M 20.78714 13.22824 L 20.78714 51.02339 L 323.1915 51.02339 L 323.1915 24.022 "/>
<path transform="matrix(0,1,1,0,325.2805,46.297254)" stroke-width=".3985" stroke-linecap="round" stroke-linejoin="round" fill="none" stroke="#ff0000" d="M -2.07224 2.39104 C -1.69365 .95639 -.84999 .27895 0 0 C -.84999 -.27895 -1.69365 -.95639 -2.07224 -2.39104 "/>
<path transform="matrix(1,0,0,-1,2.089,70.12)" stroke-width=".3985" stroke-linecap="butt" stroke-miterlimit="10" stroke-linejoin="miter" fill="none" stroke="#ff0000" d="M 105.82628 13.22824 L 105.82628 51.02339 "/>
<path transform="matrix(1,0,0,-1,2.089,70.12)" stroke-width=".3985" stroke-linecap="butt" stroke-miterlimit="10" stroke-linejoin="miter" fill="none" stroke="#800080" d="M 28.34607 13.22824 L 28.34607 60.47218 L 370.4417 60.47218 L 370.4417 24.022 "/>
<path transform="matrix(0,1,1,0,372.5307,46.297254)" stroke-width=".3985" stroke-linecap="round" stroke-linejoin="round" fill="none" stroke="#800080" d="M -2.07224 2.39104 C -1.69365 .95639 -.84999 .27895 0 0 C -.84999 -.27895 -1.69365 -.95639 -2.07224 -2.39104 "/>
<path transform="matrix(1,0,0,-1,2.089,70.12)" stroke-width=".3985" stroke-linecap="butt" stroke-miterlimit="10" stroke-linejoin="miter" fill="none" stroke="#800080" d="M 113.3852 13.22824 L 113.3852 60.47218 "/>
<path transform="matrix(1,0,0,-1,2.089,70.12)" stroke-width=".3985" stroke-linecap="butt" stroke-miterlimit="10" stroke-linejoin="miter" fill="none" stroke="#fff200" d="M 35.90498 13.22824 L 35.90498 69.92099 L 417.69194 69.92099 L 417.69194 24.022 "/>
<path transform="matrix(0,1,1,0,419.7809,46.297254)" stroke-width=".3985" stroke-linecap="round" stroke-linejoin="round" fill="none" stroke="#fff200" d="M -2.07224 2.39104 C -1.69365 .95639 -.84999 .27895 0 0 C -.84999 -.27895 -1.69365 -.95639 -2.07224 -2.39104 "/>
<path transform="matrix(1,0,0,-1,2.089,70.12)" stroke-width=".3985" stroke-linecap="butt" stroke-miterlimit="10" stroke-linejoin="miter" fill="none" stroke="#fff200" d="M 120.94412 13.22824 L 120.94412 69.92099 "/>
</g>
</svg>
