<?xml version="1.0" encoding="UTF-8" standalone="no"?>
<!DOCTYPE svg PUBLIC "-//W3C//DTD SVG 1.1//EN" "http://www.w3.org/Graphics/SVG/1.1/DTD/svg11.dtd">
<svg xmlns="http://www.w3.org/2000/svg" xmlns:xlink="http://www.w3.org/1999/xlink" version="1.1" width="432.682pt" height="616.934pt" viewBox="0 0 432.682 616.934">
<g enable-background="new">
<path transform="matrix(1,0,0,-1,141.931,49.80603)" d="M -141.73404 -21.2601 L -141.73404 49.6069 L 70.867 49.6069 L 70.867 -21.2601 Z M 70.867 49.6069 " fill="#b9e5fa"/>
<path transform="matrix(1,0,0,-1,141.931,49.80603)" stroke-width=".3985" stroke-linecap="butt" stroke-miterlimit="10" stroke-linejoin="miter" fill="none" stroke="#000000" d="M -141.73404 -21.2601 L -141.73404 49.6069 L 70.867 49.6069 L 70.867 -21.2601 Z M 70.867 49.6069 "/>
<symbol id="font_0_5f">
<path d="M .697 .11000001 C .697 .116000007 .697 .127 .684 .127 C .673 .127 .673 .118 .672 .111 C .666 .040000004 .631 .022000002 .606 .022000002 C .557 .022000002 .549 .07300001 .535 .16600001 L .522 .246 C .504 .31000004 .455 .34300003 .40000005 .36200003 C .497 .38600005 .575 .44700004 .575 .52500006 C .575 .62100008 .46100004 .70500007 .314 .70500007 L 0 .70500007 L 0 .674 L .024000004 .674 C .10100001 .674 .103000018 .66300007 .103000018 .62700006 L .103000018 .1 C .103000018 .064 .10100001 .053000004 .024000004 .053000004 L 0 .053000004 L 0 .022000002 C .036000004 .025000003 .10700001 .025000003 .14600002 .025000003 C .18500002 .025000003 .256 .025000003 .29200004 .022000002 L .29200004 .053000004 L .268 .053000004 C .19100002 .053000004 .18900001 .064 .18900001 .1 L .18900001 .35300005 L .30400003 .35300005 C .32000003 .35300005 .36200003 .35300005 .397 .31900005 C .43500004 .28300003 .43500004 .252 .43500004 .185 C .43500004 .120000008 .43500004 .080000009 .47600005 .042000005 C .517 .006000001 .572 0 .602 0 C .68 0 .697 .082 .697 .11000001 M .47200004 .52500006 C .47200004 .45600004 .448 .37500004 .3 .37500004 L .18900001 .37500004 L .18900001 .63400009 C .18900001 .65700009 .18900001 .669 .21100001 .67200008 C .22100002 .674 .25000004 .674 .27 .674 C .36 .674 .47200004 .67 .47200004 .52500006 Z "/>
</symbol>
<symbol id="font_0_1b">
<path d="M .685 0 L .685 .031000002 L .66700008 .031000002 C .60700008 .031000002 .593 .038000004 .582 .071 L .36600004 .69600006 C .361 .70900008 .35900004 .716 .34300003 .716 C .32700003 .716 .324 .71000006 .319 .69600006 L .112 .098000008 C .094 .047000003 .054 .032 0 .031000002 L 0 0 L .102 .003 L .21700001 0 L .21700001 .031000002 C .16700001 .031000002 .142 .056 .142 .082 C .142 .085 .143 .095000009 .14400001 .097 L .19000001 .22800002 L .437 .22800002 L .49 .075 C .491 .071 .49300004 .065000008 .49300004 .061000006 C .49300004 .031000002 .437 .031000002 .41000004 .031000002 L .41000004 0 C .446 .003 .51600006 .003 .554 .003 L .685 0 M .42600004 .259 L .201 .259 L .31300003 .58400008 L .42600004 .259 Z "/>
</symbol>
<symbol id="font_0_73">
<path d="M .702 0 L .702 .031000002 L .683 .031000002 C .63100007 .031000002 .61 .036000004 .58900007 .067 L .37800003 .386 L .51500007 .587 C .53700008 .619 .57100006 .651 .66 .652 L .66 .683 L .549 .68 C .50900009 .68 .46100004 .68 .42100004 .683 L .42100004 .652 C .46100004 .651 .48300005 .629 .48300005 .606 C .48300005 .596 .481 .59400007 .47400005 .583 L .36 .41400004 L .23100002 .60700008 C .22900002 .61 .224 .61800006 .224 .62200006 C .224 .634 .246 .651 .28900004 .652 L .28900004 .683 C .25400005 .68 .18100001 .68 .143 .68 L .013 .683 L .013 .652 L .032 .652 C .08700001 .652 .106000009 .64500007 .125 .61700007 L .30900003 .33900003 L .14500001 .097 C .131 .07700001 .100999999 .031000002 0 .031000002 L 0 0 L .111 .003 C .148 .003 .20300001 .003 .23900001 0 L .23900001 .031000002 C .193 .032 .176 .059000005 .176 .07700001 C .176 .086 .179 .09 .186 .101 L .32800005 .31100003 L .48600007 .072000008 C .48800005 .068 .49100007 .064 .49100007 .061000006 C .49100007 .049000004 .46900005 .032 .42600004 .031000002 L .42600004 0 C .46100004 .003 .53400006 .003 .572 .003 L .702 0 Z "/>
</symbol>
<use xlink:href="#font_0_5f" transform="matrix(9.96264,0,0,-9.96264,17.75569,39.309206)"/>
<use xlink:href="#font_0_1b" transform="matrix(9.96264,0,0,-9.96264,25.058304,39.090028)"/>
<use xlink:href="#font_0_73" transform="matrix(9.96264,0,0,-9.96264,32.450586,39.090028)"/>
<path transform="matrix(1,0,0,-1,141.931,49.80603)" d="M -70.867 -14.17339 L -70.867 42.5202 L 70.867 42.5202 L 70.867 -14.17339 Z M 70.867 42.5202 " fill="#6dcff6"/>
<path transform="matrix(1,0,0,-1,141.931,49.80603)" stroke-width=".3985" stroke-linecap="butt" stroke-miterlimit="10" stroke-linejoin="miter" fill="none" stroke="#000000" d="M -70.867 -14.17339 L -70.867 42.5202 L 70.867 42.5202 L 70.867 -14.17339 Z M 70.867 42.5202 "/>
<symbol id="font_0_31">
<path d="M .619 .25800003 L .59400007 .25800003 C .56900009 .104 .54600009 .031000002 .374 .031000002 L .24100003 .031000002 C .194 .031000002 .192 .038000004 .192 .071 L .192 .33800004 L .28200004 .33800004 C .37900005 .33800004 .39000003 .30600003 .39000003 .22100002 L .41500003 .22100002 L .41500003 .48600004 L .39000003 .48600004 C .39000003 .4 .37900005 .36900003 .28200004 .36900003 L .192 .36900003 L .192 .609 C .192 .642 .194 .64900007 .24100003 .64900007 L .37000004 .64900007 C .52300009 .64900007 .55 .59400007 .56600007 .455 L .591 .455 L .563 .68 L 0 .68 L 0 .64900007 L .024000004 .64900007 C .101 .64900007 .10300001 .638 .10300001 .60200008 L .10300001 .078 C .10300001 .042000005 .101 .031000002 .024000004 .031000002 L 0 .031000002 L 0 0 L .577 0 L .619 .25800003 Z "/>
</symbol>
<use xlink:href="#font_0_31" transform="matrix(9.96264,0,0,-9.96264,88.87677,39.199037)"/>
<use xlink:href="#font_0_1b" transform="matrix(9.96264,0,0,-9.96264,95.65137,39.199037)"/>
<use xlink:href="#font_0_73" transform="matrix(9.96264,0,0,-9.96264,103.04365,39.199037)"/>
<path transform="matrix(1,0,0,-1,141.931,49.80603)" d="M 0 -7.08669 L 0 35.43349 L 70.867 35.43349 L 70.867 -7.08669 Z M 70.867 35.43349 " fill="#00bdf2"/>
<path transform="matrix(1,0,0,-1,141.931,49.80603)" stroke-width=".3985" stroke-linecap="butt" stroke-miterlimit="10" stroke-linejoin="miter" fill="none" stroke="#000000" d="M 0 -7.08669 L 0 35.43349 L 70.867 35.43349 L 70.867 -7.08669 Z M 70.867 35.43349 "/>
<use xlink:href="#font_0_1b" transform="matrix(9.96264,0,0,-9.96264,170.2118,28.56903)"/>
<use xlink:href="#font_0_73" transform="matrix(9.96264,0,0,-9.96264,177.6041,28.56903)"/>
<path transform="matrix(1,0,0,-1,141.931,49.80603)" d="M 0 0 L 0 14.17339 L 35.43349 14.17339 L 35.43349 0 Z M 35.43349 14.17339 L 35.43349 0 L 70.867 0 L 70.867 14.17339 Z M 70.867 0 " fill="#00aeef"/>
<path transform="matrix(1,0,0,-1,141.931,49.80603)" stroke-width=".3985" stroke-linecap="butt" stroke-miterlimit="10" stroke-linejoin="miter" fill="none" stroke="#000000" d="M 0 0 L 0 14.17339 L 35.43349 14.17339 L 35.43349 0 Z M 35.43349 14.17339 L 35.43349 0 L 70.867 0 L 70.867 14.17339 Z M 70.867 0 "/>
<symbol id="font_0_3e">
<path d="M .683 0 L .683 .031000002 L .65900006 .031000002 C .582 .031000002 .58000007 .042000005 .58000007 .078 L .58000007 .605 C .58000007 .64100006 .582 .652 .65900006 .652 L .683 .652 L .683 .683 C .64800009 .68 .57400009 .68 .536 .68 C .49800004 .68 .42300005 .68 .38800005 .683 L .38800005 .652 L .41200004 .652 C .48900003 .652 .49100007 .64100006 .49100007 .605 L .49100007 .37100003 L .192 .37100003 L .192 .605 C .192 .64100006 .194 .652 .27100004 .652 L .29500003 .652 L .29500003 .683 C .26000003 .68 .18600002 .68 .148 .68 C .11000001 .68 .035000005 .68 0 .683 L 0 .652 L .024000004 .652 C .101 .652 .10300001 .64100006 .10300001 .605 L .10300001 .078 C .10300001 .042000005 .101 .031000002 .024000004 .031000002 L 0 .031000002 L 0 0 C .035000005 .003 .109000008 .003 .14700002 .003 C .185 .003 .26000003 .003 .29500003 0 L .29500003 .031000002 L .27100004 .031000002 C .194 .031000002 .192 .042000005 .192 .078 L .192 .34 L .49100007 .34 L .49100007 .078 C .49100007 .042000005 .48900003 .031000002 .41200004 .031000002 L .38800005 .031000002 L .38800005 0 C .42300005 .003 .49700005 .003 .535 .003 C .573 .003 .64800009 .003 .683 0 Z "/>
</symbol>
<use xlink:href="#font_0_1b" transform="matrix(9.96264,0,0,-9.96264,152.4948,46.28601)"/>
<use xlink:href="#font_0_3e" transform="matrix(9.96264,0,0,-9.96264,159.97675,46.28601)"/>
<symbol id="font_0_47">
<path d="M .549 .25800003 L .52400007 .25800003 C .513 .156 .499 .031000002 .323 .031000002 L .24100003 .031000002 C .194 .031000002 .192 .038000004 .192 .071 L .192 .60400006 C .192 .638 .192 .652 .28700004 .652 L .32000003 .652 L .32000003 .683 C .284 .68 .19300002 .68 .15200001 .68 C .11300001 .68 .035000005 .68 0 .683 L 0 .652 L .024000004 .652 C .101 .652 .10300001 .64100006 .10300001 .605 L .10300001 .078 C .10300001 .042000005 .101 .031000002 .024000004 .031000002 L 0 .031000002 L 0 0 L .521 0 L .549 .25800003 Z "/>
</symbol>
<use xlink:href="#font_0_1b" transform="matrix(9.96264,0,0,-9.96264,188.5508,46.28601)"/>
<use xlink:href="#font_0_47" transform="matrix(9.96264,0,0,-9.96264,196.03275,46.28601)"/>
<path transform="matrix(1,0,0,-1,141.931,49.80603)" d="M -141.73404 -99.21382 L -141.73404 -28.3468 L 70.867 -28.3468 L 70.867 -99.21382 Z M 70.867 -28.3468 " fill="#b9e5fa"/>
<path transform="matrix(1,0,0,-1,141.931,49.80603)" stroke-width=".3985" stroke-linecap="butt" stroke-miterlimit="10" stroke-linejoin="miter" fill="none" stroke="#000000" d="M -141.73404 -99.21382 L -141.73404 -28.3468 L 70.867 -28.3468 L 70.867 -99.21382 Z M 70.867 -28.3468 "/>
<symbol id="font_0_22">
<path d="M .615 .18300002 C .615 .27 .533 .34500004 .42200003 .35700003 C .519 .37600003 .588 .44000004 .588 .514 C .588 .601 .496 .683 .366 .683 L 0 .683 L 0 .652 L .024 .652 C .10100001 .652 .103000018 .64100006 .103000018 .605 L .103000018 .078 C .103000018 .042000005 .10100001 .031000002 .024 .031000002 L 0 .031000002 L 0 0 L .39200003 0 C .52500006 0 .615 .089 .615 .18300002 M .491 .514 C .491 .45000003 .442 .36600004 .331 .36600004 L .18600002 .36600004 L .18600002 .61200007 C .18600002 .64500007 .18800001 .652 .23500003 .652 L .359 .652 C .456 .652 .491 .56700006 .491 .514 M .515 .18400002 C .515 .113000009 .463 .031000002 .36 .031000002 L .23500003 .031000002 C .18800001 .031000002 .18600002 .038000004 .18600002 .071 L .18600002 .344 L .374 .344 C .473 .344 .515 .25100003 .515 .18400002 Z "/>
</symbol>
<use xlink:href="#font_0_5f" transform="matrix(9.96264,0,0,-9.96264,17.965689,117.0972)"/>
<use xlink:href="#font_0_22" transform="matrix(9.96264,0,0,-9.96264,25.308157,116.87802)"/>
<use xlink:href="#font_0_73" transform="matrix(9.96264,0,0,-9.96264,32.242155,116.87802)"/>
<path transform="matrix(1,0,0,-1,141.931,49.80603)" d="M -70.867 -92.1271 L -70.867 -35.43349 L 70.867 -35.43349 L 70.867 -92.1271 Z M 70.867 -35.43349 " fill="#6dcff6"/>
<path transform="matrix(1,0,0,-1,141.931,49.80603)" stroke-width=".3985" stroke-linecap="butt" stroke-miterlimit="10" stroke-linejoin="miter" fill="none" stroke="#000000" d="M -70.867 -92.1271 L -70.867 -35.43349 L 70.867 -35.43349 L 70.867 -92.1271 Z M 70.867 -35.43349 "/>
<use xlink:href="#font_0_31" transform="matrix(9.96264,0,0,-9.96264,89.08577,116.98801)"/>
<use xlink:href="#font_0_22" transform="matrix(9.96264,0,0,-9.96264,95.90022,116.98801)"/>
<use xlink:href="#font_0_73" transform="matrix(9.96264,0,0,-9.96264,102.83422,116.98801)"/>
<path transform="matrix(1,0,0,-1,141.931,49.80603)" d="M 0 -85.04042 L 0 -42.5202 L 70.867 -42.5202 L 70.867 -85.04042 Z M 70.867 -42.5202 " fill="#00bdf2"/>
<path transform="matrix(1,0,0,-1,141.931,49.80603)" stroke-width=".3985" stroke-linecap="butt" stroke-miterlimit="10" stroke-linejoin="miter" fill="none" stroke="#000000" d="M 0 -85.04042 L 0 -42.5202 L 70.867 -42.5202 L 70.867 -85.04042 Z M 70.867 -42.5202 "/>
<use xlink:href="#font_0_22" transform="matrix(9.96264,0,0,-9.96264,170.46067,106.35803)"/>
<use xlink:href="#font_0_73" transform="matrix(9.96264,0,0,-9.96264,177.39466,106.35803)"/>
<path transform="matrix(1,0,0,-1,141.931,49.80603)" d="M 0 -77.95372 L 0 -63.7803 L 35.43349 -63.7803 L 35.43349 -77.95372 Z M 35.43349 -63.7803 L 35.43349 -77.95372 L 70.867 -77.95372 L 70.867 -63.7803 Z M 70.867 -77.95372 " fill="#00aeef"/>
<path transform="matrix(1,0,0,-1,141.931,49.80603)" stroke-width=".3985" stroke-linecap="butt" stroke-miterlimit="10" stroke-linejoin="miter" fill="none" stroke="#000000" d="M 0 -77.95372 L 0 -63.7803 L 35.43349 -63.7803 L 35.43349 -77.95372 Z M 35.43349 -63.7803 L 35.43349 -77.95372 L 70.867 -77.95372 L 70.867 -63.7803 Z M 70.867 -77.95372 "/>
<use xlink:href="#font_0_22" transform="matrix(9.96264,0,0,-9.96264,152.74365,124.074039)"/>
<use xlink:href="#font_0_3e" transform="matrix(9.96264,0,0,-9.96264,159.7673,124.074039)"/>
<use xlink:href="#font_0_22" transform="matrix(9.96264,0,0,-9.96264,188.79965,124.074039)"/>
<use xlink:href="#font_0_47" transform="matrix(9.96264,0,0,-9.96264,195.8233,124.074039)"/>
<path transform="matrix(1,0,0,-1,141.931,49.80603)" d="M -141.73404 -177.16754 L -141.73404 -106.30052 L 70.867 -106.30052 L 70.867 -177.16754 Z M 70.867 -106.30052 " fill="#b9e5fa"/>
<path transform="matrix(1,0,0,-1,141.931,49.80603)" stroke-width=".3985" stroke-linecap="butt" stroke-miterlimit="10" stroke-linejoin="miter" fill="none" stroke="#000000" d="M -141.73404 -177.16754 L -141.73404 -106.30052 L 70.867 -106.30052 L 70.867 -177.16754 Z M 70.867 -106.30052 "/>
<symbol id="font_0_2a">
<path d="M .609 .25500003 C .609 .26500003 .609 .272 .596 .272 C .58500006 .272 .58500006 .26600004 .58400008 .256 C .57600006 .113000009 .46900005 .031000004 .36 .031000004 C .29900003 .031000004 .10300001 .065000008 .10300001 .36300005 C .10300001 .66200008 .298 .69600006 .35900004 .69600006 C .46800006 .69600006 .55700007 .605 .577 .45900003 C .57900008 .44500003 .57900008 .44200004 .59300008 .44200004 C .609 .44200004 .609 .44500003 .609 .46600006 L .609 .70300009 C .609 .72 .609 .72700008 .59800007 .72700008 C .59400007 .72700008 .59000006 .72700008 .582 .71500006 L .532 .64100006 C .495 .67700007 .444 .72700008 .34800003 .72700008 C .16100002 .72700008 0 .568 0 .36400003 C 0 .157 .162 0 .34800003 0 C .51100006 0 .609 .13900002 .609 .25500003 Z "/>
</symbol>
<use xlink:href="#font_0_5f" transform="matrix(9.96264,0,0,-9.96264,18.034689,195.15921)"/>
<use xlink:href="#font_0_2a" transform="matrix(9.96264,0,0,-9.96264,25.297455,195.15921)"/>
<use xlink:href="#font_0_73" transform="matrix(9.96264,0,0,-9.96264,32.17168,194.94004)"/>
<path transform="matrix(1,0,0,-1,141.931,49.80603)" d="M -70.867 -170.08086 L -70.867 -113.38724 L 70.867 -113.38724 L 70.867 -170.08086 Z M 70.867 -113.38724 " fill="#6dcff6"/>
<path transform="matrix(1,0,0,-1,141.931,49.80603)" stroke-width=".3985" stroke-linecap="butt" stroke-miterlimit="10" stroke-linejoin="miter" fill="none" stroke="#000000" d="M -70.867 -170.08086 L -70.867 -113.38724 L 70.867 -113.38724 L 70.867 -170.08086 Z M 70.867 -113.38724 "/>
<use xlink:href="#font_0_31" transform="matrix(9.96264,0,0,-9.96264,89.01576,194.94004)"/>
<use xlink:href="#font_0_2a" transform="matrix(9.96264,0,0,-9.96264,96.029468,195.15921)"/>
<use xlink:href="#font_0_73" transform="matrix(9.96264,0,0,-9.96264,102.90369,194.94004)"/>
<path transform="matrix(1,0,0,-1,141.931,49.80603)" d="M 0 -162.99414 L 0 -120.47392 L 70.867 -120.47392 L 70.867 -162.99414 Z M 70.867 -120.47392 " fill="#00bdf2"/>
<path transform="matrix(1,0,0,-1,141.931,49.80603)" stroke-width=".3985" stroke-linecap="butt" stroke-miterlimit="10" stroke-linejoin="miter" fill="none" stroke="#000000" d="M 0 -162.99414 L 0 -120.47392 L 70.867 -120.47392 L 70.867 -162.99414 Z M 70.867 -120.47392 "/>
<use xlink:href="#font_0_2a" transform="matrix(9.96264,0,0,-9.96264,170.5899,184.5292)"/>
<use xlink:href="#font_0_73" transform="matrix(9.96264,0,0,-9.96264,177.46413,184.31003)"/>
<path transform="matrix(1,0,0,-1,141.931,49.80603)" d="M 0 -155.90744 L 0 -141.73404 L 35.43349 -141.73404 L 35.43349 -155.90744 Z M 35.43349 -141.73404 L 35.43349 -155.90744 L 70.867 -155.90744 L 70.867 -141.73404 Z M 70.867 -155.90744 " fill="#00aeef"/>
<path transform="matrix(1,0,0,-1,141.931,49.80603)" stroke-width=".3985" stroke-linecap="butt" stroke-miterlimit="10" stroke-linejoin="miter" fill="none" stroke="#000000" d="M 0 -155.90744 L 0 -141.73404 L 35.43349 -141.73404 L 35.43349 -155.90744 Z M 35.43349 -141.73404 L 35.43349 -155.90744 L 70.867 -155.90744 L 70.867 -141.73404 Z M 70.867 -155.90744 "/>
<use xlink:href="#font_0_2a" transform="matrix(9.96264,0,0,-9.96264,152.87291,202.24619)"/>
<use xlink:href="#font_0_3e" transform="matrix(9.96264,0,0,-9.96264,159.83679,202.02701)"/>
<use xlink:href="#font_0_2a" transform="matrix(9.96264,0,0,-9.96264,188.92891,202.24619)"/>
<use xlink:href="#font_0_47" transform="matrix(9.96264,0,0,-9.96264,195.89279,202.02701)"/>
<path transform="matrix(1,0,0,-1,141.931,49.80603)" d="M -141.73404 -255.12128 L -141.73404 -184.25424 L 70.867 -184.25424 L 70.867 -255.12128 Z M 70.867 -184.25424 " fill="#b9e5fa"/>
<path transform="matrix(1,0,0,-1,141.931,49.80603)" stroke-width=".3985" stroke-linecap="butt" stroke-miterlimit="10" stroke-linejoin="miter" fill="none" stroke="#000000" d="M -141.73404 -255.12128 L -141.73404 -184.25424 L 70.867 -184.25424 L 70.867 -255.12128 Z M 70.867 -184.25424 "/>
<symbol id="font_0_2e">
<path d="M .672 .33600004 C .672 .526 .537 .683 .36600004 .683 L 0 .683 L 0 .652 L .024000004 .652 C .10100001 .652 .103000018 .64100006 .103000018 .605 L .103000018 .078 C .103000018 .042000005 .10100001 .031000002 .024000004 .031000002 L 0 .031000002 L 0 0 L .36600004 0 C .534 0 .672 .148 .672 .33600004 M .572 .33600004 C .572 .22500001 .553 .165 .517 .116000007 C .497 .089 .44000004 .031000002 .33900003 .031000002 L .238 .031000002 C .19100002 .031000002 .18900001 .038000004 .18900001 .071 L .18900001 .61200007 C .18900001 .64500007 .19100002 .652 .238 .652 L .33800004 .652 C .40000005 .652 .469 .63000008 .52 .559 C .563 .5 .572 .41400004 .572 .33600004 Z "/>
</symbol>
<use xlink:href="#font_0_5f" transform="matrix(9.96264,0,0,-9.96264,17.82569,273.0022)"/>
<use xlink:href="#font_0_2e" transform="matrix(9.96264,0,0,-9.96264,25.158192,272.78303)"/>
<use xlink:href="#font_0_73" transform="matrix(9.96264,0,0,-9.96264,32.38111,272.78303)"/>
<path transform="matrix(1,0,0,-1,141.931,49.80603)" d="M -70.867 -248.03458 L -70.867 -191.34096 L 70.867 -191.34096 L 70.867 -248.03458 Z M 70.867 -191.34096 " fill="#6dcff6"/>
<path transform="matrix(1,0,0,-1,141.931,49.80603)" stroke-width=".3985" stroke-linecap="butt" stroke-miterlimit="10" stroke-linejoin="miter" fill="none" stroke="#000000" d="M -70.867 -248.03458 L -70.867 -191.34096 L 70.867 -191.34096 L 70.867 -248.03458 Z M 70.867 -191.34096 "/>
<use xlink:href="#font_0_31" transform="matrix(9.96264,0,0,-9.96264,88.94577,272.89305)"/>
<use xlink:href="#font_0_2e" transform="matrix(9.96264,0,0,-9.96264,95.75026,272.89305)"/>
<use xlink:href="#font_0_73" transform="matrix(9.96264,0,0,-9.96264,102.973178,272.89305)"/>
<path transform="matrix(1,0,0,-1,141.931,49.80603)" d="M 0 -240.94788 L 0 -198.42766 L 70.867 -198.42766 L 70.867 -240.94788 Z M 70.867 -198.42766 " fill="#00bdf2"/>
<path transform="matrix(1,0,0,-1,141.931,49.80603)" stroke-width=".3985" stroke-linecap="butt" stroke-miterlimit="10" stroke-linejoin="miter" fill="none" stroke="#000000" d="M 0 -240.94788 L 0 -198.42766 L 70.867 -198.42766 L 70.867 -240.94788 Z M 70.867 -198.42766 "/>
<use xlink:href="#font_0_2e" transform="matrix(9.96264,0,0,-9.96264,170.3107,262.26304)"/>
<use xlink:href="#font_0_73" transform="matrix(9.96264,0,0,-9.96264,177.5336,262.26304)"/>
<path transform="matrix(1,0,0,-1,141.931,49.80603)" d="M 0 -233.86116 L 0 -219.68776 L 35.43349 -219.68776 L 35.43349 -233.86116 Z M 35.43349 -219.68776 L 35.43349 -233.86116 L 70.867 -233.86116 L 70.867 -219.68776 Z M 70.867 -233.86116 " fill="#00aeef"/>
<path transform="matrix(1,0,0,-1,141.931,49.80603)" stroke-width=".3985" stroke-linecap="butt" stroke-miterlimit="10" stroke-linejoin="miter" fill="none" stroke="#000000" d="M 0 -233.86116 L 0 -219.68776 L 35.43349 -219.68776 L 35.43349 -233.86116 Z M 35.43349 -219.68776 L 35.43349 -233.86116 L 70.867 -233.86116 L 70.867 -219.68776 Z M 70.867 -233.86116 "/>
<use xlink:href="#font_0_2e" transform="matrix(9.96264,0,0,-9.96264,152.4547,279.98008)"/>
<use xlink:href="#font_0_3e" transform="matrix(9.96264,0,0,-9.96264,160.04622,279.98008)"/>
<use xlink:href="#font_0_2e" transform="matrix(9.96264,0,0,-9.96264,188.5107,279.98008)"/>
<use xlink:href="#font_0_47" transform="matrix(9.96264,0,0,-9.96264,196.10222,279.98008)"/>
<path transform="matrix(1,0,0,-1,141.931,49.80603)" d="M -141.73404 -333.075 L -141.73404 -262.20799 L 70.867 -262.20799 L 70.867 -333.075 Z M 70.867 -262.20799 " fill="#b9e5fa"/>
<path transform="matrix(1,0,0,-1,141.931,49.80603)" stroke-width=".3985" stroke-linecap="butt" stroke-miterlimit="10" stroke-linejoin="miter" fill="none" stroke="#000000" d="M -141.73404 -333.075 L -141.73404 -262.20799 L 70.867 -262.20799 L 70.867 -333.075 Z M 70.867 -262.20799 "/>
<symbol id="font_0_61">
<path d="M .44300003 .208 C .44300003 .30800004 .37700004 .39000006 .293 .41000004 L .16500002 .44100005 C .10300001 .45600004 .064 .51000007 .064 .568 C .064 .6380001 .11800001 .69900009 .19600001 .69900009 C .36300005 .69900009 .38500003 .535 .39100004 .49000005 C .39200003 .48400004 .39200003 .47800005 .40300004 .47800005 C .41600005 .47800005 .41600005 .48300005 .41600005 .50200006 L .41600005 .70300009 C .41600005 .72 .41600005 .72700008 .40500004 .72700008 C .39800004 .72700008 .397 .7260001 .39000003 .71400007 L .35500003 .65700009 C .32500003 .68600007 .284 .72700008 .19500003 .72700008 C .084 .72700008 0 .63900008 0 .53300008 C 0 .45000006 .053000004 .37700004 .13100001 .35000003 C .14200002 .34600003 .19300002 .33400003 .263 .31700004 C .29000003 .31000004 .32000003 .30300004 .34800003 .26600004 C .36900003 .24000001 .37900005 .207 .37900005 .17400001 C .37900005 .103 .32900004 .031000004 .24500004 .031000004 C .21600002 .031000004 .14000002 .036000004 .087000008 .085 C .029 .13900002 .026 .20300001 .024999999 .23900001 C .024000004 .24900002 .016000003 .24900002 .013000004 .24900002 C 0 .24900002 0 .24200002 0 .224 L 0 .024000003 C 0 .007000001 0 0 .011 0 C .018 0 .019000002 .0020000004 .026 .013000001 C .026 .013000001 .029 .017 .062000008 .07 C .093 .036000004 .157 0 .24600002 0 C .36300005 0 .44300003 .098000008 .44300003 .208 Z "/>
</symbol>
<symbol id="font_0_53">
<path d="M .589 .497 C .589 .595 .49000005 .683 .35300002 .683 L 0 .683 L 0 .652 L .024000004 .652 C .10100001 .652 .103000018 .64100006 .103000018 .605 L .103000018 .078 C .103000018 .042000005 .10100001 .031000002 .024000004 .031000002 L 0 .031000002 L 0 0 C .035 .003 .10900001 .003 .14700002 .003 C .18500002 .003 .26000003 .003 .29500003 0 L .29500003 .031000002 L .27100004 .031000002 C .19400002 .031000002 .19200002 .042000005 .19200002 .078 L .19200002 .316 L .36100004 .316 C .48100005 .316 .589 .397 .589 .497 M .48600004 .497 C .48600004 .45000003 .48600004 .342 .32700003 .342 L .18900001 .342 L .18900001 .61200007 C .18900001 .64500007 .19100002 .652 .238 .652 L .32700003 .652 C .48600004 .652 .48600004 .546 .48600004 .497 Z "/>
</symbol>
<use xlink:href="#font_0_5f" transform="matrix(9.96264,0,0,-9.96264,19.066695,351.06526)"/>
<use xlink:href="#font_0_61" transform="matrix(9.96264,0,0,-9.96264,26.608412,351.06526)"/>
<use xlink:href="#font_0_53" transform="matrix(9.96264,0,0,-9.96264,31.938426,350.84608)"/>
<path transform="matrix(1,0,0,-1,141.931,49.80603)" d="M -70.867 -325.9883 L -70.867 -269.29469 L 70.867 -269.29469 L 70.867 -325.9883 Z M 70.867 -269.29469 " fill="#6dcff6"/>
<path transform="matrix(1,0,0,-1,141.931,49.80603)" stroke-width=".3985" stroke-linecap="butt" stroke-miterlimit="10" stroke-linejoin="miter" fill="none" stroke="#000000" d="M -70.867 -325.9883 L -70.867 -269.29469 L 70.867 -269.29469 L 70.867 -325.9883 Z M 70.867 -269.29469 "/>
<use xlink:href="#font_0_31" transform="matrix(9.96264,0,0,-9.96264,90.18677,350.84608)"/>
<use xlink:href="#font_0_61" transform="matrix(9.96264,0,0,-9.96264,97.20047,351.06526)"/>
<use xlink:href="#font_0_53" transform="matrix(9.96264,0,0,-9.96264,102.53049,350.84608)"/>
<path transform="matrix(1,0,0,-1,141.931,49.80603)" d="M 0 -318.9016 L 0 -276.38139 L 70.867 -276.38139 L 70.867 -318.9016 Z M 70.867 -276.38139 " fill="#00bdf2"/>
<path transform="matrix(1,0,0,-1,141.931,49.80603)" stroke-width=".3985" stroke-linecap="butt" stroke-miterlimit="10" stroke-linejoin="miter" fill="none" stroke="#000000" d="M 0 -318.9016 L 0 -276.38139 L 70.867 -276.38139 L 70.867 -318.9016 Z M 70.867 -276.38139 "/>
<use xlink:href="#font_0_61" transform="matrix(9.96264,0,0,-9.96264,171.76091,340.4352)"/>
<use xlink:href="#font_0_53" transform="matrix(9.96264,0,0,-9.96264,177.09093,340.21604)"/>
<path transform="matrix(1,0,0,-1,141.931,49.80603)" d="M 35.43349 -297.6415 L 35.43349 -311.8149 L 70.867 -311.8149 L 70.867 -297.6415 Z M 70.867 -311.8149 " fill="#00aeef"/>
<path transform="matrix(1,0,0,-1,141.931,49.80603)" stroke-width=".3985" stroke-linecap="butt" stroke-miterlimit="10" stroke-linejoin="miter" fill="none" stroke="#000000" d="M 35.43349 -297.6415 L 35.43349 -311.8149 L 70.867 -311.8149 L 70.867 -297.6415 Z M 70.867 -311.8149 "/>
<use xlink:href="#font_0_61" transform="matrix(9.96264,0,0,-9.96264,186.3639,358.15126)"/>
<use xlink:href="#font_0_53" transform="matrix(9.96264,0,0,-9.96264,191.69393,357.93208)"/>
<use xlink:href="#font_0_47" transform="matrix(9.96264,0,0,-9.96264,198.45856,357.93208)"/>
<path transform="matrix(1,0,0,-1,141.931,49.80603)" d="M -141.73404 -411.02873 L -141.73404 -340.1617 L 70.867 -340.1617 L 70.867 -411.02873 Z M 70.867 -340.1617 " fill="#b9e5fa"/>
<path transform="matrix(1,0,0,-1,141.931,49.80603)" stroke-width=".3985" stroke-linecap="butt" stroke-miterlimit="10" stroke-linejoin="miter" fill="none" stroke="#000000" d="M -141.73404 -411.02873 L -141.73404 -340.1617 L 70.867 -340.1617 L 70.867 -411.02873 Z M 70.867 -340.1617 "/>
<use xlink:href="#font_0_5f" transform="matrix(9.96264,0,0,-9.96264,18.308691,428.9082)"/>
<use xlink:href="#font_0_22" transform="matrix(9.96264,0,0,-9.96264,25.65116,428.68904)"/>
<use xlink:href="#font_0_53" transform="matrix(9.96264,0,0,-9.96264,32.694749,428.68904)"/>
<path transform="matrix(1,0,0,-1,141.931,49.80603)" d="M -70.867 -403.94203 L -70.867 -347.2484 L 70.867 -347.2484 L 70.867 -403.94203 Z M 70.867 -347.2484 " fill="#6dcff6"/>
<path transform="matrix(1,0,0,-1,141.931,49.80603)" stroke-width=".3985" stroke-linecap="butt" stroke-miterlimit="10" stroke-linejoin="miter" fill="none" stroke="#000000" d="M -70.867 -403.94203 L -70.867 -347.2484 L 70.867 -347.2484 L 70.867 -403.94203 Z M 70.867 -347.2484 "/>
<use xlink:href="#font_0_31" transform="matrix(9.96264,0,0,-9.96264,89.428768,428.79804)"/>
<use xlink:href="#font_0_22" transform="matrix(9.96264,0,0,-9.96264,96.24322,428.79804)"/>
<use xlink:href="#font_0_53" transform="matrix(9.96264,0,0,-9.96264,103.286808,428.79804)"/>
<path transform="matrix(1,0,0,-1,141.931,49.80603)" d="M 0 -396.85533 L 0 -354.3351 L 70.867 -354.3351 L 70.867 -396.85533 Z M 70.867 -354.3351 " fill="#00bdf2"/>
<path transform="matrix(1,0,0,-1,141.931,49.80603)" stroke-width=".3985" stroke-linecap="butt" stroke-miterlimit="10" stroke-linejoin="miter" fill="none" stroke="#000000" d="M 0 -396.85533 L 0 -354.3351 L 70.867 -354.3351 L 70.867 -396.85533 Z M 70.867 -354.3351 "/>
<use xlink:href="#font_0_22" transform="matrix(9.96264,0,0,-9.96264,170.80367,418.169)"/>
<use xlink:href="#font_0_53" transform="matrix(9.96264,0,0,-9.96264,177.84725,418.169)"/>
<path transform="matrix(1,0,0,-1,141.931,49.80603)" d="M 35.43349 -375.5952 L 35.43349 -389.76863 L 70.867 -389.76863 L 70.867 -375.5952 Z M 70.867 -389.76863 " fill="#00aeef"/>
<path transform="matrix(1,0,0,-1,141.931,49.80603)" stroke-width=".3985" stroke-linecap="butt" stroke-miterlimit="10" stroke-linejoin="miter" fill="none" stroke="#000000" d="M 35.43349 -375.5952 L 35.43349 -389.76863 L 70.867 -389.76863 L 70.867 -375.5952 Z M 70.867 -389.76863 "/>
<use xlink:href="#font_0_22" transform="matrix(9.96264,0,0,-9.96264,185.40766,435.885)"/>
<use xlink:href="#font_0_53" transform="matrix(9.96264,0,0,-9.96264,192.45124,435.885)"/>
<use xlink:href="#font_0_47" transform="matrix(9.96264,0,0,-9.96264,199.21587,435.885)"/>
<path transform="matrix(1,0,0,-1,141.931,49.80603)" d="M -141.73404 -488.98246 L -141.73404 -418.11543 L 70.867 -418.11543 L 70.867 -488.98246 Z M 70.867 -418.11543 " fill="#b9e5fa"/>
<path transform="matrix(1,0,0,-1,141.931,49.80603)" stroke-width=".3985" stroke-linecap="butt" stroke-miterlimit="10" stroke-linejoin="miter" fill="none" stroke="#000000" d="M -141.73404 -488.98246 L -141.73404 -418.11543 L 70.867 -418.11543 L 70.867 -488.98246 Z M 70.867 -418.11543 "/>
<symbol id="font_0_41">
<path d="M .305 0 L .305 .031000002 L .279 .031000002 C .20000002 .031000002 .19700001 .042000005 .19700001 .078 L .19700001 .605 C .19700001 .64100006 .20000002 .652 .279 .652 L .305 .652 L .305 .683 C .27 .68 .19100002 .68 .15300001 .68 C .11400001 .68 .035 .68 0 .683 L 0 .652 L .026 .652 C .105000007 .652 .10800001 .64100006 .10800001 .605 L .10800001 .078 C .10800001 .042000005 .105000007 .031000002 .026 .031000002 L 0 .031000002 L 0 0 C .035 .003 .11400001 .003 .15200001 .003 C .19100002 .003 .27 .003 .305 0 Z "/>
</symbol>
<use xlink:href="#font_0_5f" transform="matrix(9.96264,0,0,-9.96264,20.660689,506.9702)"/>
<use xlink:href="#font_0_61" transform="matrix(9.96264,0,0,-9.96264,28.202408,506.9702)"/>
<use xlink:href="#font_0_41" transform="matrix(9.96264,0,0,-9.96264,33.46268,506.75105)"/>
<path transform="matrix(1,0,0,-1,141.931,49.80603)" d="M -70.867 -481.89579 L -70.867 -425.20213 L 70.867 -425.20213 L 70.867 -481.89579 Z M 70.867 -425.20213 " fill="#6dcff6"/>
<path transform="matrix(1,0,0,-1,141.931,49.80603)" stroke-width=".3985" stroke-linecap="butt" stroke-miterlimit="10" stroke-linejoin="miter" fill="none" stroke="#000000" d="M -70.867 -481.89579 L -70.867 -425.20213 L 70.867 -425.20213 L 70.867 -481.89579 Z M 70.867 -425.20213 "/>
<use xlink:href="#font_0_31" transform="matrix(9.96264,0,0,-9.96264,91.78076,506.75105)"/>
<use xlink:href="#font_0_61" transform="matrix(9.96264,0,0,-9.96264,98.794467,506.9702)"/>
<use xlink:href="#font_0_41" transform="matrix(9.96264,0,0,-9.96264,104.05474,506.75105)"/>
<path transform="matrix(1,0,0,-1,141.931,49.80603)" d="M 0 -474.80906 L 0 -432.28883 L 70.867 -432.28883 L 70.867 -474.80906 Z M 70.867 -432.28883 " fill="#00bdf2"/>
<path transform="matrix(1,0,0,-1,141.931,49.80603)" stroke-width=".3985" stroke-linecap="butt" stroke-miterlimit="10" stroke-linejoin="miter" fill="none" stroke="#000000" d="M 0 -474.80906 L 0 -432.28883 L 70.867 -432.28883 L 70.867 -474.80906 Z M 70.867 -432.28883 "/>
<use xlink:href="#font_0_61" transform="matrix(9.96264,0,0,-9.96264,173.3549,496.3402)"/>
<use xlink:href="#font_0_41" transform="matrix(9.96264,0,0,-9.96264,178.61519,496.12104)"/>
<path transform="matrix(1,0,0,-1,141.931,49.80603)" d="M 35.43349 -453.54896 L 35.43349 -467.72236 L 70.867 -467.72236 L 70.867 -453.54896 Z M 70.867 -467.72236 " fill="#00aeef"/>
<path transform="matrix(1,0,0,-1,141.931,49.80603)" stroke-width=".3985" stroke-linecap="butt" stroke-miterlimit="10" stroke-linejoin="miter" fill="none" stroke="#000000" d="M 35.43349 -453.54896 L 35.43349 -467.72236 L 70.867 -467.72236 L 70.867 -453.54896 Z M 70.867 -467.72236 "/>
<use xlink:href="#font_0_61" transform="matrix(9.96264,0,0,-9.96264,187.9579,514.0572)"/>
<use xlink:href="#font_0_41" transform="matrix(9.96264,0,0,-9.96264,193.21819,513.838)"/>
<use xlink:href="#font_0_47" transform="matrix(9.96264,0,0,-9.96264,196.8645,513.838)"/>
<path transform="matrix(1,0,0,-1,141.931,49.80603)" d="M -141.73404 -566.9362 L -141.73404 -496.06916 L 70.867 -496.06916 L 70.867 -566.9362 Z M 70.867 -496.06916 " fill="#b9e5fa"/>
<path transform="matrix(1,0,0,-1,141.931,49.80603)" stroke-width=".3985" stroke-linecap="butt" stroke-miterlimit="10" stroke-linejoin="miter" fill="none" stroke="#000000" d="M -141.73404 -566.9362 L -141.73404 -496.06916 L 70.867 -496.06916 L 70.867 -566.9362 Z M 70.867 -496.06916 "/>
<use xlink:href="#font_0_5f" transform="matrix(9.96264,0,0,-9.96264,19.623694,584.81326)"/>
<use xlink:href="#font_0_2e" transform="matrix(9.96264,0,0,-9.96264,26.956196,584.59408)"/>
<use xlink:href="#font_0_41" transform="matrix(9.96264,0,0,-9.96264,34.497919,584.59408)"/>
<path transform="matrix(1,0,0,-1,141.931,49.80603)" d="M -70.867 -559.8495 L -70.867 -503.15589 L 70.867 -503.15589 L 70.867 -559.8495 Z M 70.867 -503.15589 " fill="#6dcff6"/>
<path transform="matrix(1,0,0,-1,141.931,49.80603)" stroke-width=".3985" stroke-linecap="butt" stroke-miterlimit="10" stroke-linejoin="miter" fill="none" stroke="#000000" d="M -70.867 -559.8495 L -70.867 -503.15589 L 70.867 -503.15589 L 70.867 -559.8495 Z M 70.867 -503.15589 "/>
<use xlink:href="#font_0_31" transform="matrix(9.96264,0,0,-9.96264,90.74477,584.70407)"/>
<use xlink:href="#font_0_2e" transform="matrix(9.96264,0,0,-9.96264,97.549259,584.70407)"/>
<use xlink:href="#font_0_41" transform="matrix(9.96264,0,0,-9.96264,105.09097,584.70407)"/>
<path transform="matrix(1,0,0,-1,141.931,49.80603)" d="M 0 -552.76278 L 0 -510.24259 L 70.867 -510.24259 L 70.867 -552.76278 Z M 70.867 -510.24259 " fill="#00bdf2"/>
<path transform="matrix(1,0,0,-1,141.931,49.80603)" stroke-width=".3985" stroke-linecap="butt" stroke-miterlimit="10" stroke-linejoin="miter" fill="none" stroke="#000000" d="M 0 -552.76278 L 0 -510.24259 L 70.867 -510.24259 L 70.867 -552.76278 Z M 70.867 -510.24259 "/>
<use xlink:href="#font_0_2e" transform="matrix(9.96264,0,0,-9.96264,172.1097,574.07406)"/>
<use xlink:href="#font_0_41" transform="matrix(9.96264,0,0,-9.96264,179.65142,574.07406)"/>
<path transform="matrix(1,0,0,-1,141.931,49.80603)" d="M 35.43349 -531.5027 L 35.43349 -545.6761 L 70.867 -545.6761 L 70.867 -531.5027 Z M 70.867 -545.6761 " fill="#00aeef"/>
<path transform="matrix(1,0,0,-1,141.931,49.80603)" stroke-width=".3985" stroke-linecap="butt" stroke-miterlimit="10" stroke-linejoin="miter" fill="none" stroke="#000000" d="M 35.43349 -531.5027 L 35.43349 -545.6761 L 70.867 -545.6761 L 70.867 -531.5027 Z M 70.867 -545.6761 "/>
<use xlink:href="#font_0_2e" transform="matrix(9.96264,0,0,-9.96264,186.71269,591.791)"/>
<use xlink:href="#font_0_41" transform="matrix(9.96264,0,0,-9.96264,194.25441,591.791)"/>
<use xlink:href="#font_0_47" transform="matrix(9.96264,0,0,-9.96264,197.90073,591.791)"/>
<path transform="matrix(1,0,0,-1,141.931,49.80603)" d="M 77.95372 -21.2601 L 77.95372 49.6069 L 290.55479 49.6069 L 290.55479 -21.2601 Z M 290.55479 49.6069 " fill="#b9e5fa"/>
<path transform="matrix(1,0,0,-1,141.931,49.80603)" stroke-width=".3985" stroke-linecap="butt" stroke-miterlimit="10" stroke-linejoin="miter" fill="none" stroke="#000000" d="M 77.95372 -21.2601 L 77.95372 49.6069 L 290.55479 49.6069 L 290.55479 -21.2601 Z M 290.55479 49.6069 "/>
<symbol id="font_0_33">
<path d="M .41500003 .19000001 C .41500003 .22600001 .404 .27100004 .36600004 .31300003 C .34700004 .33400003 .33100004 .34400005 .26700003 .38400004 C .33900003 .42100004 .388 .47300006 .388 .53900006 C .388 .63100007 .29900003 .688 .208 .688 C .108 .688 .027000003 .614 .027000003 .521 C .027000003 .503 .029 .45800004 .071 .41100005 C .082 .39900003 .11900001 .37400005 .144 .35700003 C .086 .32800005 0 .272 0 .17300001 C 0 .067 .102000009 0 .20700002 0 C .32000003 0 .41500003 .083000008 .41500003 .19000001 M .344 .53900006 C .344 .48200003 .305 .43400005 .245 .39900003 L .121 .47900004 C .075 .509 .071 .54300007 .071 .56000009 C .071 .62100008 .136 .66300007 .20700002 .66300007 C .28000004 .66300007 .344 .61100009 .344 .53900006 M .365 .154 C .365 .080000009 .29000003 .028 .208 .028 C .122 .028 .050000006 .09 .050000006 .17300001 C .050000006 .231 .082 .29500003 .167 .34200005 L .29000003 .26400004 C .31800003 .245 .365 .215 .365 .154 Z "/>
</symbol>
<use xlink:href="#font_0_5f" transform="matrix(9.96264,0,0,-9.96264,242.4227,39.144227)"/>
<use xlink:href="#font_0_33" transform="matrix(9.96264,0,0,-9.96264,249.82494,39.144227)"/>
<path transform="matrix(1,0,0,-1,141.931,49.80603)" d="M 148.82074 -14.17339 L 148.82074 42.5202 L 290.55479 42.5202 L 290.55479 -14.17339 Z M 290.55479 42.5202 " fill="#6dcff6"/>
<path transform="matrix(1,0,0,-1,141.931,49.80603)" stroke-width=".3985" stroke-linecap="butt" stroke-miterlimit="10" stroke-linejoin="miter" fill="none" stroke="#000000" d="M 148.82074 -14.17339 L 148.82074 42.5202 L 290.55479 42.5202 L 290.55479 -14.17339 Z M 290.55479 42.5202 "/>
<use xlink:href="#font_0_5f" transform="matrix(9.96264,0,0,-9.96264,309.4827,39.144227)"/>
<use xlink:href="#font_0_33" transform="matrix(9.96264,0,0,-9.96264,316.88493,39.144227)"/>
<use xlink:href="#font_0_2e" transform="matrix(9.96264,0,0,-9.96264,321.7965,38.92505)"/>
<path transform="matrix(1,0,0,-1,141.931,49.80603)" d="M 219.68776 -7.08669 L 219.68776 35.43349 L 290.55479 35.43349 L 290.55479 -7.08669 Z M 290.55479 35.43349 " fill="#00bdf2"/>
<path transform="matrix(1,0,0,-1,141.931,49.80603)" stroke-width=".3985" stroke-linecap="butt" stroke-miterlimit="10" stroke-linejoin="miter" fill="none" stroke="#000000" d="M 219.68776 -7.08669 L 219.68776 35.43349 L 290.55479 35.43349 L 290.55479 -7.08669 Z M 290.55479 35.43349 "/>
<symbol id="font_0_71">
<path d="M .99100008 .674 L .99100008 .70500007 C .961 .70300009 .93000009 .702 .90000006 .702 L .781 .70500007 L .781 .674 C .84800007 .67300006 .86800006 .64000007 .86800006 .62100008 C .86800006 .61500009 .865 .60700008 .86300006 .6010001 L .713 .13900002 L .55300006 .62900009 C .55200007 .633 .55 .63900008 .55 .64400008 C .55 .674 .60800006 .674 .634 .674 L .634 .70500007 C .59800007 .702 .53000006 .702 .49200005 .702 L .37 .70500007 L .37 .674 C .42700003 .674 .448 .674 .46 .6380001 L .482 .568 L .34300003 .13900002 L .182 .63100007 C .18100001 .63400009 .18 .64100006 .18 .64400008 C .18 .674 .238 .674 .264 .674 L .264 .70500007 C .228 .702 .16 .702 .122 .702 L 0 .70500007 L 0 .674 C .075 .674 .079 .669 .091000009 .632 L .291 .019000002 C .294 .010000002 .29700003 0 .31 0 C .324 0 .326 .007000001 .33 .020000002 L .495 .52800008 L .661 .019000002 C .66400006 .010000002 .66700008 0 .68 0 C .694 0 .69600006 .007000001 .70000007 .020000002 L .89100006 .60700008 C .90900006 .66400006 .952 .674 .99100008 .674 Z "/>
</symbol>
<use xlink:href="#font_0_5f" transform="matrix(9.96264,0,0,-9.96264,386.1207,28.514222)"/>
<use xlink:href="#font_0_33" transform="matrix(9.96264,0,0,-9.96264,393.52293,28.514222)"/>
<use xlink:href="#font_0_71" transform="matrix(9.96264,0,0,-9.96264,398.26515,28.514222)"/>
<path transform="matrix(1,0,0,-1,141.931,49.80603)" d="M 255.12128 14.17339 L 255.12128 0 L 290.55479 0 L 290.55479 14.17339 Z M 290.55479 0 " fill="#00aeef"/>
<path transform="matrix(1,0,0,-1,141.931,49.80603)" stroke-width=".3985" stroke-linecap="butt" stroke-miterlimit="10" stroke-linejoin="miter" fill="none" stroke="#000000" d="M 255.12128 14.17339 L 255.12128 0 L 290.55479 0 L 290.55479 14.17339 Z M 290.55479 0 "/>
<use xlink:href="#font_0_5f" transform="matrix(9.96264,0,0,-9.96264,405.4307,46.2312)"/>
<use xlink:href="#font_0_33" transform="matrix(9.96264,0,0,-9.96264,412.83293,46.2312)"/>
<use xlink:href="#font_0_22" transform="matrix(9.96264,0,0,-9.96264,417.75447,46.012025)"/>
<path transform="matrix(1,0,0,-1,141.931,49.80603)" d="M 77.95372 -99.21382 L 77.95372 -28.3468 L 290.55479 -28.3468 L 290.55479 -99.21382 Z M 290.55479 -28.3468 " fill="#b9e5fa"/>
<path transform="matrix(1,0,0,-1,141.931,49.80603)" stroke-width=".3985" stroke-linecap="butt" stroke-miterlimit="10" stroke-linejoin="miter" fill="none" stroke="#000000" d="M 77.95372 -99.21382 L 77.95372 -28.3468 L 290.55479 -28.3468 L 290.55479 -99.21382 Z M 290.55479 -28.3468 "/>
<symbol id="font_0_4e">
<path d="M .41500003 .35100005 C .41500003 .62000009 .3 .688 .21100003 .688 C .15600002 .688 .107 .67 .064 .62500008 C .023000002 .58000007 0 .53800007 0 .46300004 C 0 .33800004 .08800001 .24000001 .20000002 .24000001 C .261 .24000001 .30200003 .28200004 .32500003 .34000004 L .32500003 .30800004 C .32500003 .074 .22100002 .028 .16300002 .028 C .146 .028 .092 .030000002 .065000008 .064 C .109000008 .064 .117000009 .093 .117000009 .11000001 C .117000009 .141 .093 .156 .071 .156 C .055 .156 .024999999 .147 .024999999 .108 C .024999999 .041 .079 0 .164 0 C .293 0 .41500003 .136 .41500003 .35100005 M .323 .44300006 C .323 .36000005 .28900004 .263 .201 .263 C .185 .263 .139 .263 .108 .32600004 C .089999999 .36300005 .089999999 .41300006 .089999999 .46200005 C .089999999 .51600006 .089999999 .563 .11100001 .6 C .13800001 .65000006 .176 .66300007 .21100003 .66300007 C .25700004 .66300007 .29000003 .62900009 .307 .58400008 C .31900005 .55200007 .323 .48900003 .323 .44300006 Z "/>
</symbol>
<use xlink:href="#font_0_5f" transform="matrix(9.96264,0,0,-9.96264,242.4227,117.0972)"/>
<use xlink:href="#font_0_4e" transform="matrix(9.96264,0,0,-9.96264,249.82494,117.0972)"/>
<path transform="matrix(1,0,0,-1,141.931,49.80603)" d="M 148.82074 -92.1271 L 148.82074 -35.43349 L 290.55479 -35.43349 L 290.55479 -92.1271 Z M 290.55479 -35.43349 " fill="#6dcff6"/>
<path transform="matrix(1,0,0,-1,141.931,49.80603)" stroke-width=".3985" stroke-linecap="butt" stroke-miterlimit="10" stroke-linejoin="miter" fill="none" stroke="#000000" d="M 148.82074 -92.1271 L 148.82074 -35.43349 L 290.55479 -35.43349 L 290.55479 -92.1271 Z M 290.55479 -35.43349 "/>
<use xlink:href="#font_0_5f" transform="matrix(9.96264,0,0,-9.96264,309.4827,117.0972)"/>
<use xlink:href="#font_0_4e" transform="matrix(9.96264,0,0,-9.96264,316.88493,117.0972)"/>
<use xlink:href="#font_0_2e" transform="matrix(9.96264,0,0,-9.96264,321.7965,116.87802)"/>
<path transform="matrix(1,0,0,-1,141.931,49.80603)" d="M 219.68776 -85.04042 L 219.68776 -42.5202 L 290.55479 -42.5202 L 290.55479 -85.04042 Z M 290.55479 -42.5202 " fill="#00bdf2"/>
<path transform="matrix(1,0,0,-1,141.931,49.80603)" stroke-width=".3985" stroke-linecap="butt" stroke-miterlimit="10" stroke-linejoin="miter" fill="none" stroke="#000000" d="M 219.68776 -85.04042 L 219.68776 -42.5202 L 290.55479 -42.5202 L 290.55479 -85.04042 Z M 290.55479 -42.5202 "/>
<use xlink:href="#font_0_5f" transform="matrix(9.96264,0,0,-9.96264,386.1207,106.46719)"/>
<use xlink:href="#font_0_4e" transform="matrix(9.96264,0,0,-9.96264,393.52293,106.46719)"/>
<use xlink:href="#font_0_71" transform="matrix(9.96264,0,0,-9.96264,398.26515,106.46719)"/>
<path transform="matrix(1,0,0,-1,141.931,49.80603)" d="M 255.12128 -63.7803 L 255.12128 -77.95372 L 290.55479 -77.95372 L 290.55479 -63.7803 Z M 290.55479 -77.95372 " fill="#00aeef"/>
<path transform="matrix(1,0,0,-1,141.931,49.80603)" stroke-width=".3985" stroke-linecap="butt" stroke-miterlimit="10" stroke-linejoin="miter" fill="none" stroke="#000000" d="M 255.12128 -63.7803 L 255.12128 -77.95372 L 290.55479 -77.95372 L 290.55479 -63.7803 Z M 290.55479 -77.95372 "/>
<use xlink:href="#font_0_5f" transform="matrix(9.96264,0,0,-9.96264,405.4307,124.184207)"/>
<use xlink:href="#font_0_4e" transform="matrix(9.96264,0,0,-9.96264,412.83293,124.184207)"/>
<use xlink:href="#font_0_22" transform="matrix(9.96264,0,0,-9.96264,417.75447,123.96503)"/>
<path transform="matrix(1,0,0,-1,141.931,49.80603)" d="M 77.95372 -177.16754 L 77.95372 -106.30052 L 290.55479 -106.30052 L 290.55479 -177.16754 Z M 290.55479 -106.30052 " fill="#b9e5fa"/>
<path transform="matrix(1,0,0,-1,141.931,49.80603)" stroke-width=".3985" stroke-linecap="butt" stroke-miterlimit="10" stroke-linejoin="miter" fill="none" stroke="#000000" d="M 77.95372 -177.16754 L 77.95372 -106.30052 L 290.55479 -106.30052 L 290.55479 -177.16754 Z M 290.55479 -106.30052 "/>
<symbol id="font_0_52">
<path d="M .33000005 0 L .33000005 .031000002 L .29800005 .031000002 C .20800002 .031000002 .205 .042000005 .205 .079 L .205 .64000007 C .205 .66400006 .205 .666 .18200003 .666 C .120000008 .60200008 .032000007 .60200008 0 .60200008 L 0 .57100006 C .020000004 .57100006 .07900001 .57100006 .13100001 .597 L .13100001 .079 C .13100001 .043 .128 .031000002 .038000004 .031000002 L .0060000049 .031000002 L .0060000049 0 C .04100001 .003 .128 .003 .168 .003 C .20800002 .003 .29500003 .003 .33000005 0 Z "/>
</symbol>
<symbol id="font_0_79">
<path d="M .421 .34200005 C .421 .42200003 .416 .50200006 .381 .57600006 C .335 .67200008 .25300003 .688 .211 .688 C .15100001 .688 .07800001 .66200008 .037000006 .56900009 C .0050000029 .5 0 .42200003 0 .34200005 C 0 .26700003 .0040000008 .177 .045000007 .101 C .088 .020000002 .161 0 .21000001 0 C .264 0 .34 .021000002 .384 .116000007 C .416 .185 .421 .263 .421 .34200005 M .338 .35400004 C .338 .279 .338 .21100001 .32700003 .147 C .312 .052 .255 .022000002 .21000001 .022000002 C .171 .022000002 .112 .047000003 .094 .143 C .083000008 .20300001 .083000008 .29500003 .083000008 .35400004 C .083000008 .41800005 .083000008 .48400004 .091000009 .53800007 C .11 .65700009 .185 .66600009 .21000001 .66600009 C .243 .66600009 .30900003 .64800009 .328 .549 C .338 .49300004 .338 .41700004 .338 .35400004 Z "/>
</symbol>
<use xlink:href="#font_0_5f" transform="matrix(9.96264,0,0,-9.96264,239.9317,195.0502)"/>
<use xlink:href="#font_0_52" transform="matrix(9.96264,0,0,-9.96264,247.80219,194.83103)"/>
<use xlink:href="#font_0_79" transform="matrix(9.96264,0,0,-9.96264,252.28539,195.0502)"/>
<path transform="matrix(1,0,0,-1,141.931,49.80603)" d="M 148.82074 -170.08086 L 148.82074 -113.38724 L 290.55479 -113.38724 L 290.55479 -170.08086 Z M 290.55479 -113.38724 " fill="#6dcff6"/>
<path transform="matrix(1,0,0,-1,141.931,49.80603)" stroke-width=".3985" stroke-linecap="butt" stroke-miterlimit="10" stroke-linejoin="miter" fill="none" stroke="#000000" d="M 148.82074 -170.08086 L 148.82074 -113.38724 L 290.55479 -113.38724 L 290.55479 -170.08086 Z M 290.55479 -113.38724 "/>
<use xlink:href="#font_0_5f" transform="matrix(9.96264,0,0,-9.96264,306.9917,195.0502)"/>
<use xlink:href="#font_0_52" transform="matrix(9.96264,0,0,-9.96264,314.86219,194.83103)"/>
<use xlink:href="#font_0_79" transform="matrix(9.96264,0,0,-9.96264,319.34538,195.0502)"/>
<use xlink:href="#font_0_2e" transform="matrix(9.96264,0,0,-9.96264,324.28684,194.83103)"/>
<path transform="matrix(1,0,0,-1,141.931,49.80603)" d="M 219.68776 -162.99414 L 219.68776 -120.47392 L 290.55479 -120.47392 L 290.55479 -162.99414 Z M 290.55479 -120.47392 " fill="#00bdf2"/>
<path transform="matrix(1,0,0,-1,141.931,49.80603)" stroke-width=".3985" stroke-linecap="butt" stroke-miterlimit="10" stroke-linejoin="miter" fill="none" stroke="#000000" d="M 219.68776 -162.99414 L 219.68776 -120.47392 L 290.55479 -120.47392 L 290.55479 -162.99414 Z M 290.55479 -120.47392 "/>
<use xlink:href="#font_0_5f" transform="matrix(9.96264,0,0,-9.96264,383.6297,184.4202)"/>
<use xlink:href="#font_0_52" transform="matrix(9.96264,0,0,-9.96264,391.50019,184.20102)"/>
<use xlink:href="#font_0_79" transform="matrix(9.96264,0,0,-9.96264,395.98338,184.4202)"/>
<use xlink:href="#font_0_71" transform="matrix(9.96264,0,0,-9.96264,400.75547,184.4202)"/>
<path transform="matrix(1,0,0,-1,141.931,49.80603)" d="M 255.12128 -141.73404 L 255.12128 -155.90744 L 290.55479 -155.90744 L 290.55479 -141.73404 Z M 290.55479 -155.90744 " fill="#00aeef"/>
<path transform="matrix(1,0,0,-1,141.931,49.80603)" stroke-width=".3985" stroke-linecap="butt" stroke-miterlimit="10" stroke-linejoin="miter" fill="none" stroke="#000000" d="M 255.12128 -141.73404 L 255.12128 -155.90744 L 290.55479 -155.90744 L 290.55479 -141.73404 Z M 290.55479 -155.90744 "/>
<use xlink:href="#font_0_5f" transform="matrix(9.96264,0,0,-9.96264,402.9407,202.1362)"/>
<use xlink:href="#font_0_52" transform="matrix(9.96264,0,0,-9.96264,410.8112,201.91703)"/>
<use xlink:href="#font_0_79" transform="matrix(9.96264,0,0,-9.96264,415.29438,202.1362)"/>
<use xlink:href="#font_0_22" transform="matrix(9.96264,0,0,-9.96264,420.2458,201.91703)"/>
<path transform="matrix(1,0,0,-1,141.931,49.80603)" d="M 77.95372 -255.12128 L 77.95372 -184.25424 L 290.55479 -184.25424 L 290.55479 -255.12128 Z M 290.55479 -184.25424 " fill="#b9e5fa"/>
<path transform="matrix(1,0,0,-1,141.931,49.80603)" stroke-width=".3985" stroke-linecap="butt" stroke-miterlimit="10" stroke-linejoin="miter" fill="none" stroke="#000000" d="M 77.95372 -255.12128 L 77.95372 -184.25424 L 290.55479 -184.25424 L 290.55479 -255.12128 Z M 290.55479 -184.25424 "/>
<use xlink:href="#font_0_5f" transform="matrix(9.96264,0,0,-9.96264,239.9317,273.0022)"/>
<use xlink:href="#font_0_52" transform="matrix(9.96264,0,0,-9.96264,247.80219,272.78303)"/>
<use xlink:href="#font_0_52" transform="matrix(9.96264,0,0,-9.96264,252.78351,272.78303)"/>
<path transform="matrix(1,0,0,-1,141.931,49.80603)" d="M 148.82074 -248.03458 L 148.82074 -191.34096 L 290.55479 -191.34096 L 290.55479 -248.03458 Z M 290.55479 -191.34096 " fill="#6dcff6"/>
<path transform="matrix(1,0,0,-1,141.931,49.80603)" stroke-width=".3985" stroke-linecap="butt" stroke-miterlimit="10" stroke-linejoin="miter" fill="none" stroke="#000000" d="M 148.82074 -248.03458 L 148.82074 -191.34096 L 290.55479 -191.34096 L 290.55479 -248.03458 Z M 290.55479 -191.34096 "/>
<use xlink:href="#font_0_5f" transform="matrix(9.96264,0,0,-9.96264,306.9917,273.0022)"/>
<use xlink:href="#font_0_52" transform="matrix(9.96264,0,0,-9.96264,314.86219,272.78303)"/>
<use xlink:href="#font_0_52" transform="matrix(9.96264,0,0,-9.96264,319.8435,272.78303)"/>
<use xlink:href="#font_0_2e" transform="matrix(9.96264,0,0,-9.96264,324.28684,272.78303)"/>
<path transform="matrix(1,0,0,-1,141.931,49.80603)" d="M 219.68776 -240.94788 L 219.68776 -198.42766 L 290.55479 -198.42766 L 290.55479 -240.94788 Z M 290.55479 -198.42766 " fill="#00bdf2"/>
<path transform="matrix(1,0,0,-1,141.931,49.80603)" stroke-width=".3985" stroke-linecap="butt" stroke-miterlimit="10" stroke-linejoin="miter" fill="none" stroke="#000000" d="M 219.68776 -240.94788 L 219.68776 -198.42766 L 290.55479 -198.42766 L 290.55479 -240.94788 Z M 290.55479 -198.42766 "/>
<use xlink:href="#font_0_5f" transform="matrix(9.96264,0,0,-9.96264,383.6297,262.37327)"/>
<use xlink:href="#font_0_52" transform="matrix(9.96264,0,0,-9.96264,391.50019,262.15409)"/>
<use xlink:href="#font_0_52" transform="matrix(9.96264,0,0,-9.96264,396.4815,262.15409)"/>
<use xlink:href="#font_0_71" transform="matrix(9.96264,0,0,-9.96264,400.75547,262.37327)"/>
<path transform="matrix(1,0,0,-1,141.931,49.80603)" d="M 255.12128 -219.68776 L 255.12128 -233.86116 L 290.55479 -233.86116 L 290.55479 -219.68776 Z M 290.55479 -233.86116 " fill="#00aeef"/>
<path transform="matrix(1,0,0,-1,141.931,49.80603)" stroke-width=".3985" stroke-linecap="butt" stroke-miterlimit="10" stroke-linejoin="miter" fill="none" stroke="#000000" d="M 255.12128 -219.68776 L 255.12128 -233.86116 L 290.55479 -233.86116 L 290.55479 -219.68776 Z M 290.55479 -233.86116 "/>
<use xlink:href="#font_0_5f" transform="matrix(9.96264,0,0,-9.96264,402.9407,280.0892)"/>
<use xlink:href="#font_0_52" transform="matrix(9.96264,0,0,-9.96264,410.8112,279.87004)"/>
<use xlink:href="#font_0_52" transform="matrix(9.96264,0,0,-9.96264,415.7925,279.87004)"/>
<use xlink:href="#font_0_22" transform="matrix(9.96264,0,0,-9.96264,420.2458,279.87004)"/>
<path transform="matrix(1,0,0,-1,141.931,49.80603)" d="M 77.95372 -333.075 L 77.95372 -262.20799 L 290.55479 -262.20799 L 290.55479 -333.075 Z M 290.55479 -262.20799 " fill="#b9e5fa"/>
<path transform="matrix(1,0,0,-1,141.931,49.80603)" stroke-width=".3985" stroke-linecap="butt" stroke-miterlimit="10" stroke-linejoin="miter" fill="none" stroke="#000000" d="M 77.95372 -333.075 L 77.95372 -262.20799 L 290.55479 -262.20799 L 290.55479 -333.075 Z M 290.55479 -262.20799 "/>
<symbol id="font_0_6b">
<path d="M .39900003 .17400001 L .374 .17400001 C .36900003 .14400001 .36200003 .1 .352 .085 C .345 .07700001 .279 .07700001 .257 .07700001 L .07700001 .07700001 L .18300002 .18 C .33900003 .31800003 .39900003 .372 .39900003 .47200004 C .39900003 .586 .30900003 .666 .18700002 .666 C .074 .666 0 .574 0 .485 C 0 .42900003 .05 .42900003 .053000008 .42900003 C .07000001 .42900003 .105000007 .441 .105000007 .48200003 C .105000007 .508 .08700001 .53400006 .052000006 .53400006 C .044000005 .53400006 .042000008 .53400006 .039 .53300008 C .062000004 .59800007 .11600001 .63500007 .17400001 .63500007 C .26500003 .63500007 .308 .554 .308 .47200004 C .308 .39200003 .25800003 .31300003 .20300003 .25100003 L .011000004 .037 C 0 .026 0 .024 0 0 L .37100003 0 L .39900003 .17400001 Z "/>
</symbol>
<use xlink:href="#font_0_5f" transform="matrix(9.96264,0,0,-9.96264,239.9317,350.9552)"/>
<use xlink:href="#font_0_52" transform="matrix(9.96264,0,0,-9.96264,247.80219,350.73603)"/>
<use xlink:href="#font_0_6b" transform="matrix(9.96264,0,0,-9.96264,252.39498,350.73603)"/>
<path transform="matrix(1,0,0,-1,141.931,49.80603)" d="M 148.82074 -325.9883 L 148.82074 -269.29469 L 290.55479 -269.29469 L 290.55479 -325.9883 Z M 290.55479 -269.29469 " fill="#6dcff6"/>
<path transform="matrix(1,0,0,-1,141.931,49.80603)" stroke-width=".3985" stroke-linecap="butt" stroke-miterlimit="10" stroke-linejoin="miter" fill="none" stroke="#000000" d="M 148.82074 -325.9883 L 148.82074 -269.29469 L 290.55479 -269.29469 L 290.55479 -325.9883 Z M 290.55479 -269.29469 "/>
<use xlink:href="#font_0_5f" transform="matrix(9.96264,0,0,-9.96264,306.9917,350.9552)"/>
<use xlink:href="#font_0_52" transform="matrix(9.96264,0,0,-9.96264,314.86219,350.73603)"/>
<use xlink:href="#font_0_6b" transform="matrix(9.96264,0,0,-9.96264,319.45497,350.73603)"/>
<use xlink:href="#font_0_2e" transform="matrix(9.96264,0,0,-9.96264,324.28684,350.73603)"/>
<path transform="matrix(1,0,0,-1,141.931,49.80603)" d="M 219.68776 -318.9016 L 219.68776 -276.38139 L 290.55479 -276.38139 L 290.55479 -318.9016 Z M 290.55479 -276.38139 " fill="#00bdf2"/>
<path transform="matrix(1,0,0,-1,141.931,49.80603)" stroke-width=".3985" stroke-linecap="butt" stroke-miterlimit="10" stroke-linejoin="miter" fill="none" stroke="#000000" d="M 219.68776 -318.9016 L 219.68776 -276.38139 L 290.55479 -276.38139 L 290.55479 -318.9016 Z M 290.55479 -276.38139 "/>
<use xlink:href="#font_0_5f" transform="matrix(9.96264,0,0,-9.96264,383.6297,340.3252)"/>
<use xlink:href="#font_0_52" transform="matrix(9.96264,0,0,-9.96264,391.50019,340.10603)"/>
<use xlink:href="#font_0_6b" transform="matrix(9.96264,0,0,-9.96264,396.09297,340.10603)"/>
<use xlink:href="#font_0_71" transform="matrix(9.96264,0,0,-9.96264,400.75547,340.3252)"/>
<path transform="matrix(1,0,0,-1,141.931,49.80603)" d="M 255.12128 -297.6415 L 255.12128 -311.8149 L 290.55479 -311.8149 L 290.55479 -297.6415 Z M 290.55479 -311.8149 " fill="#00aeef"/>
<path transform="matrix(1,0,0,-1,141.931,49.80603)" stroke-width=".3985" stroke-linecap="butt" stroke-miterlimit="10" stroke-linejoin="miter" fill="none" stroke="#000000" d="M 255.12128 -297.6415 L 255.12128 -311.8149 L 290.55479 -311.8149 L 290.55479 -297.6415 Z M 290.55479 -311.8149 "/>
<use xlink:href="#font_0_5f" transform="matrix(9.96264,0,0,-9.96264,402.9407,358.0422)"/>
<use xlink:href="#font_0_52" transform="matrix(9.96264,0,0,-9.96264,410.8112,357.82304)"/>
<use xlink:href="#font_0_6b" transform="matrix(9.96264,0,0,-9.96264,415.40397,357.82304)"/>
<use xlink:href="#font_0_22" transform="matrix(9.96264,0,0,-9.96264,420.2458,357.82304)"/>
<path transform="matrix(1,0,0,-1,141.931,49.80603)" d="M 77.95372 -411.02873 L 77.95372 -340.1617 L 290.55479 -340.1617 L 290.55479 -411.02873 Z M 290.55479 -340.1617 " fill="#b9e5fa"/>
<path transform="matrix(1,0,0,-1,141.931,49.80603)" stroke-width=".3985" stroke-linecap="butt" stroke-miterlimit="10" stroke-linejoin="miter" fill="none" stroke="#000000" d="M 77.95372 -411.02873 L 77.95372 -340.1617 L 290.55479 -340.1617 L 290.55479 -411.02873 Z M 290.55479 -340.1617 "/>
<symbol id="font_0_6a">
<path d="M .41500003 .193 C .41500003 .27500005 .35200004 .35300005 .24800003 .37400005 C .33 .40100003 .388 .47100006 .388 .55 C .388 .632 .3 .688 .204 .688 C .10300001 .688 .027000003 .628 .027000003 .55200007 C .027000003 .519 .049000004 .5 .078 .5 C .109000008 .5 .12900001 .522 .12900001 .55100008 C .12900001 .6010001 .082 .6010001 .067 .6010001 C .098 .65000006 .164 .66300007 .20000002 .66300007 C .24100003 .66300007 .29600004 .64100006 .29600004 .55100008 C .29600004 .53900006 .29400004 .48100005 .268 .43700005 C .238 .38900004 .204 .38600005 .17900002 .38500003 C .171 .38400004 .14700002 .38200004 .14000002 .38200004 C .132 .38100005 .125 .38000003 .125 .37000004 C .125 .35900004 .132 .35900004 .14900002 .35900004 L .19300002 .35900004 C .275 .35900004 .312 .29100005 .312 .193 C .312 .057000005 .24300003 .028 .199 .028 C .15600002 .028 .081 .045 .046000005 .104 C .081 .09900001 .11200001 .12100001 .11200001 .15900001 C .11200001 .19500001 .085 .215 .056 .215 C .031999999 .215 0 .201 0 .157 C 0 .06600001 .093 0 .20200002 0 C .32400004 0 .41500003 .091000009 .41500003 .193 Z "/>
</symbol>
<use xlink:href="#font_0_5f" transform="matrix(9.96264,0,0,-9.96264,239.9317,428.9082)"/>
<use xlink:href="#font_0_52" transform="matrix(9.96264,0,0,-9.96264,247.80219,428.68904)"/>
<use xlink:href="#font_0_6a" transform="matrix(9.96264,0,0,-9.96264,252.31526,428.9082)"/>
<path transform="matrix(1,0,0,-1,141.931,49.80603)" d="M 148.82074 -403.94203 L 148.82074 -347.2484 L 290.55479 -347.2484 L 290.55479 -403.94203 Z M 290.55479 -347.2484 " fill="#6dcff6"/>
<path transform="matrix(1,0,0,-1,141.931,49.80603)" stroke-width=".3985" stroke-linecap="butt" stroke-miterlimit="10" stroke-linejoin="miter" fill="none" stroke="#000000" d="M 148.82074 -403.94203 L 148.82074 -347.2484 L 290.55479 -347.2484 L 290.55479 -403.94203 Z M 290.55479 -347.2484 "/>
<use xlink:href="#font_0_5f" transform="matrix(9.96264,0,0,-9.96264,306.9917,428.9082)"/>
<use xlink:href="#font_0_52" transform="matrix(9.96264,0,0,-9.96264,314.86219,428.68904)"/>
<use xlink:href="#font_0_6a" transform="matrix(9.96264,0,0,-9.96264,319.37525,428.9082)"/>
<use xlink:href="#font_0_2e" transform="matrix(9.96264,0,0,-9.96264,324.28684,428.68904)"/>
<path transform="matrix(1,0,0,-1,141.931,49.80603)" d="M 219.68776 -396.85533 L 219.68776 -354.3351 L 290.55479 -354.3351 L 290.55479 -396.85533 Z M 290.55479 -354.3351 " fill="#00bdf2"/>
<path transform="matrix(1,0,0,-1,141.931,49.80603)" stroke-width=".3985" stroke-linecap="butt" stroke-miterlimit="10" stroke-linejoin="miter" fill="none" stroke="#000000" d="M 219.68776 -396.85533 L 219.68776 -354.3351 L 290.55479 -354.3351 L 290.55479 -396.85533 Z M 290.55479 -354.3351 "/>
<use xlink:href="#font_0_5f" transform="matrix(9.96264,0,0,-9.96264,383.6297,418.2782)"/>
<use xlink:href="#font_0_52" transform="matrix(9.96264,0,0,-9.96264,391.50019,418.05903)"/>
<use xlink:href="#font_0_6a" transform="matrix(9.96264,0,0,-9.96264,396.01325,418.2782)"/>
<use xlink:href="#font_0_71" transform="matrix(9.96264,0,0,-9.96264,400.75547,418.2782)"/>
<path transform="matrix(1,0,0,-1,141.931,49.80603)" d="M 255.12128 -375.5952 L 255.12128 -389.76863 L 290.55479 -389.76863 L 290.55479 -375.5952 Z M 290.55479 -389.76863 " fill="#00aeef"/>
<path transform="matrix(1,0,0,-1,141.931,49.80603)" stroke-width=".3985" stroke-linecap="butt" stroke-miterlimit="10" stroke-linejoin="miter" fill="none" stroke="#000000" d="M 255.12128 -375.5952 L 255.12128 -389.76863 L 290.55479 -389.76863 L 290.55479 -375.5952 Z M 290.55479 -389.76863 "/>
<use xlink:href="#font_0_5f" transform="matrix(9.96264,0,0,-9.96264,402.9407,435.9942)"/>
<use xlink:href="#font_0_52" transform="matrix(9.96264,0,0,-9.96264,410.8112,435.77503)"/>
<use xlink:href="#font_0_6a" transform="matrix(9.96264,0,0,-9.96264,415.32426,435.9942)"/>
<use xlink:href="#font_0_22" transform="matrix(9.96264,0,0,-9.96264,420.2458,435.77503)"/>
<path transform="matrix(1,0,0,-1,141.931,49.80603)" d="M 77.95372 -488.98246 L 77.95372 -418.11543 L 290.55479 -418.11543 L 290.55479 -488.98246 Z M 290.55479 -418.11543 " fill="#b9e5fa"/>
<path transform="matrix(1,0,0,-1,141.931,49.80603)" stroke-width=".3985" stroke-linecap="butt" stroke-miterlimit="10" stroke-linejoin="miter" fill="none" stroke="#000000" d="M 77.95372 -488.98246 L 77.95372 -418.11543 L 290.55479 -418.11543 L 290.55479 -488.98246 Z M 290.55479 -418.11543 "/>
<symbol id="font_0_39">
<path d="M .44300003 .165 L .44300003 .19600001 L .34300003 .19600001 L .34300003 .651 C .34300003 .671 .34300003 .67700007 .32700003 .67700007 C .31800003 .67700007 .31500004 .67700007 .307 .665 L 0 .19600001 L 0 .165 L .266 .165 L .266 .078 C .266 .042000005 .26400004 .031000002 .19000001 .031000002 L .16900002 .031000002 L .16900002 0 C .21000001 .003 .26200003 .003 .30400003 .003 C .34600003 .003 .39900003 .003 .44000004 0 L .44000004 .031000002 L .41900004 .031000002 C .34500004 .031000002 .34300003 .042000005 .34300003 .078 L .34300003 .165 L .44300003 .165 M .272 .19600001 L .028 .19600001 L .272 .569 L .272 .19600001 Z "/>
</symbol>
<use xlink:href="#font_0_5f" transform="matrix(9.96264,0,0,-9.96264,239.9317,506.8612)"/>
<use xlink:href="#font_0_52" transform="matrix(9.96264,0,0,-9.96264,247.80219,506.64204)"/>
<use xlink:href="#font_0_39" transform="matrix(9.96264,0,0,-9.96264,252.1758,506.64204)"/>
<path transform="matrix(1,0,0,-1,141.931,49.80603)" d="M 148.82074 -481.89579 L 148.82074 -425.20213 L 290.55479 -425.20213 L 290.55479 -481.89579 Z M 290.55479 -425.20213 " fill="#6dcff6"/>
<path transform="matrix(1,0,0,-1,141.931,49.80603)" stroke-width=".3985" stroke-linecap="butt" stroke-miterlimit="10" stroke-linejoin="miter" fill="none" stroke="#000000" d="M 148.82074 -481.89579 L 148.82074 -425.20213 L 290.55479 -425.20213 L 290.55479 -481.89579 Z M 290.55479 -425.20213 "/>
<use xlink:href="#font_0_5f" transform="matrix(9.96264,0,0,-9.96264,306.9917,506.8612)"/>
<use xlink:href="#font_0_52" transform="matrix(9.96264,0,0,-9.96264,314.86219,506.64204)"/>
<use xlink:href="#font_0_39" transform="matrix(9.96264,0,0,-9.96264,319.23579,506.64204)"/>
<use xlink:href="#font_0_2e" transform="matrix(9.96264,0,0,-9.96264,324.28684,506.64204)"/>
<path transform="matrix(1,0,0,-1,141.931,49.80603)" d="M 219.68776 -474.80906 L 219.68776 -432.28883 L 290.55479 -432.28883 L 290.55479 -474.80906 Z M 290.55479 -432.28883 " fill="#00bdf2"/>
<path transform="matrix(1,0,0,-1,141.931,49.80603)" stroke-width=".3985" stroke-linecap="butt" stroke-miterlimit="10" stroke-linejoin="miter" fill="none" stroke="#000000" d="M 219.68776 -474.80906 L 219.68776 -432.28883 L 290.55479 -432.28883 L 290.55479 -474.80906 Z M 290.55479 -432.28883 "/>
<use xlink:href="#font_0_5f" transform="matrix(9.96264,0,0,-9.96264,383.6297,496.2312)"/>
<use xlink:href="#font_0_52" transform="matrix(9.96264,0,0,-9.96264,391.50019,496.01203)"/>
<use xlink:href="#font_0_39" transform="matrix(9.96264,0,0,-9.96264,395.87379,496.01203)"/>
<use xlink:href="#font_0_71" transform="matrix(9.96264,0,0,-9.96264,400.75547,496.2312)"/>
<path transform="matrix(1,0,0,-1,141.931,49.80603)" d="M 255.12128 -453.54896 L 255.12128 -467.72236 L 290.55479 -467.72236 L 290.55479 -453.54896 Z M 290.55479 -467.72236 " fill="#00aeef"/>
<path transform="matrix(1,0,0,-1,141.931,49.80603)" stroke-width=".3985" stroke-linecap="butt" stroke-miterlimit="10" stroke-linejoin="miter" fill="none" stroke="#000000" d="M 255.12128 -453.54896 L 255.12128 -467.72236 L 290.55479 -467.72236 L 290.55479 -453.54896 Z M 290.55479 -467.72236 "/>
<use xlink:href="#font_0_5f" transform="matrix(9.96264,0,0,-9.96264,402.9407,513.9472)"/>
<use xlink:href="#font_0_52" transform="matrix(9.96264,0,0,-9.96264,410.8112,513.728)"/>
<use xlink:href="#font_0_39" transform="matrix(9.96264,0,0,-9.96264,415.18479,513.728)"/>
<use xlink:href="#font_0_22" transform="matrix(9.96264,0,0,-9.96264,420.2458,513.728)"/>
<path transform="matrix(1,0,0,-1,141.931,49.80603)" d="M 77.95372 -566.9362 L 77.95372 -496.06916 L 290.55479 -496.06916 L 290.55479 -566.9362 Z M 290.55479 -496.06916 " fill="#b9e5fa"/>
<path transform="matrix(1,0,0,-1,141.931,49.80603)" stroke-width=".3985" stroke-linecap="butt" stroke-miterlimit="10" stroke-linejoin="miter" fill="none" stroke="#000000" d="M 77.95372 -566.9362 L 77.95372 -496.06916 L 290.55479 -496.06916 L 290.55479 -566.9362 Z M 290.55479 -496.06916 "/>
<symbol id="font_0_38">
<path d="M .39900003 .223 C .39900003 .34200005 .317 .44200004 .209 .44200004 C .16100002 .44200004 .118000019 .42600004 .082 .39100004 L .082 .586 C .10200001 .58000007 .135 .573 .16700001 .573 C .29 .573 .36 .66400006 .36 .67700007 C .36 .683 .357 .688 .35 .688 C .35 .688 .347 .688 .342 .68500009 C .322 .67600008 .273 .656 .20600002 .656 C .16600001 .656 .120000008 .66300007 .073 .6840001 C .065 .68700006 .061000009 .68700006 .061000009 .68700006 C .051000004 .68700006 .051000004 .679 .051000004 .66300007 L .051000004 .36700005 C .051000004 .34900005 .051000004 .34100003 .065 .34100003 C .07200001 .34100003 .074 .34400005 .07800001 .35000003 C .08900002 .36600004 .12600002 .42000006 .207 .42000006 C .259 .42000006 .284 .37400005 .292 .35600005 C .308 .31900005 .31 .28000004 .31 .23 C .31 .19500001 .31 .135 .286 .093 C .262 .054000006 .22500001 .028 .17900002 .028 C .106000009 .028 .049000008 .08100001 .032 .14000002 C .035 .13900002 .038000008 .13800001 .049000008 .13800001 C .082 .13800001 .09900001 .163 .09900001 .187 C .09900001 .21100001 .082 .23600002 .049000008 .23600002 C .035 .23600002 0 .22900002 0 .18300002 C 0 .097 .069000009 0 .18100001 0 C .297 0 .39900003 .096 .39900003 .223 Z "/>
</symbol>
<use xlink:href="#font_0_5f" transform="matrix(9.96264,0,0,-9.96264,239.9317,584.81326)"/>
<use xlink:href="#font_0_52" transform="matrix(9.96264,0,0,-9.96264,247.80219,584.59408)"/>
<use xlink:href="#font_0_38" transform="matrix(9.96264,0,0,-9.96264,252.39498,584.81326)"/>
<path transform="matrix(1,0,0,-1,141.931,49.80603)" d="M 148.82074 -559.8495 L 148.82074 -503.15589 L 290.55479 -503.15589 L 290.55479 -559.8495 Z M 290.55479 -503.15589 " fill="#6dcff6"/>
<path transform="matrix(1,0,0,-1,141.931,49.80603)" stroke-width=".3985" stroke-linecap="butt" stroke-miterlimit="10" stroke-linejoin="miter" fill="none" stroke="#000000" d="M 148.82074 -559.8495 L 148.82074 -503.15589 L 290.55479 -503.15589 L 290.55479 -559.8495 Z M 290.55479 -503.15589 "/>
<use xlink:href="#font_0_5f" transform="matrix(9.96264,0,0,-9.96264,306.9917,584.81326)"/>
<use xlink:href="#font_0_52" transform="matrix(9.96264,0,0,-9.96264,314.86219,584.59408)"/>
<use xlink:href="#font_0_38" transform="matrix(9.96264,0,0,-9.96264,319.45497,584.81326)"/>
<use xlink:href="#font_0_2e" transform="matrix(9.96264,0,0,-9.96264,324.28684,584.59408)"/>
<path transform="matrix(1,0,0,-1,141.931,49.80603)" d="M 219.68776 -552.76278 L 219.68776 -510.24259 L 290.55479 -510.24259 L 290.55479 -552.76278 Z M 290.55479 -510.24259 " fill="#00bdf2"/>
<path transform="matrix(1,0,0,-1,141.931,49.80603)" stroke-width=".3985" stroke-linecap="butt" stroke-miterlimit="10" stroke-linejoin="miter" fill="none" stroke="#000000" d="M 219.68776 -552.76278 L 219.68776 -510.24259 L 290.55479 -510.24259 L 290.55479 -552.76278 Z M 290.55479 -510.24259 "/>
<use xlink:href="#font_0_5f" transform="matrix(9.96264,0,0,-9.96264,383.6297,574.1833)"/>
<use xlink:href="#font_0_52" transform="matrix(9.96264,0,0,-9.96264,391.50019,573.9641)"/>
<use xlink:href="#font_0_38" transform="matrix(9.96264,0,0,-9.96264,396.09297,574.1833)"/>
<use xlink:href="#font_0_71" transform="matrix(9.96264,0,0,-9.96264,400.75547,574.1833)"/>
<path transform="matrix(1,0,0,-1,141.931,49.80603)" d="M 255.12128 -531.5027 L 255.12128 -545.6761 L 290.55479 -545.6761 L 290.55479 -531.5027 Z M 290.55479 -545.6761 " fill="#00aeef"/>
<path transform="matrix(1,0,0,-1,141.931,49.80603)" stroke-width=".3985" stroke-linecap="butt" stroke-miterlimit="10" stroke-linejoin="miter" fill="none" stroke="#000000" d="M 255.12128 -531.5027 L 255.12128 -545.6761 L 290.55479 -545.6761 L 290.55479 -531.5027 Z M 290.55479 -545.6761 "/>
<use xlink:href="#font_0_5f" transform="matrix(9.96264,0,0,-9.96264,402.9407,591.9002)"/>
<use xlink:href="#font_0_52" transform="matrix(9.96264,0,0,-9.96264,410.8112,591.681)"/>
<use xlink:href="#font_0_38" transform="matrix(9.96264,0,0,-9.96264,415.40397,591.9002)"/>
<use xlink:href="#font_0_22" transform="matrix(9.96264,0,0,-9.96264,420.2458,591.681)"/>
</g>
</svg>
