<?xml version="1.0" encoding="UTF-8" standalone="no"?>
<!DOCTYPE svg PUBLIC "-//W3C//DTD SVG 1.1//EN" "http://www.w3.org/Graphics/SVG/1.1/DTD/svg11.dtd">
<svg xmlns="http://www.w3.org/2000/svg" xmlns:xlink="http://www.w3.org/1999/xlink" version="1.1" width="274.209pt" height="77.544pt" viewBox="0 0 274.209 77.544">
<g enable-background="new">
<path transform="matrix(1,0,0,-1,269.851,9.312996)" d="M -263.628 -68.03302 L -263.628 0 L -102.04953 0 L -102.04953 -68.03302 Z M -102.04953 0 " fill="#ffffff"/>
<path transform="matrix(1,0,0,-1,269.851,9.312996)" stroke-width=".3985" stroke-linecap="butt" stroke-miterlimit="10" stroke-linejoin="miter" fill="none" stroke="#000000" d="M -263.628 -68.03302 L -263.628 0 L -102.04953 0 L -102.04953 -68.03302 Z M -102.04953 0 "/>
<text xml:space="preserve" transform="matrix(1 0 -0 1 .000017166138 77.544)" font-size="9.96264" font-family="CMUSerif"><tspan y="-31.783" x="22.065 30.36388 35.893148 40.31656 45.845827 51.37509 55.798505 60.221918 65.75118 71.28045 80.11731 85.09863 90.6279 96.157169 100.58058 108.321559 112.744968 117.72629 123.255558 128.23688 133.76615 139.29541 144.82468">&#x0424;&#x0438;&#x0437;&#x0438;&#x0447;&#x0435;&#x0441;&#x043a;&#x0438;&#x0439;&#x0430;&#x0434;&#x0440;&#x0435;&#x0441;&#x0441;&#x0442;&#x0440;&#x0430;&#x043d;&#x0438;&#x0446;&#x044b;</tspan></text>
<path transform="matrix(1,0,0,-1,269.851,9.312996)" d="M -102.04953 -68.03302 L -102.04953 0 L -76.53716 0 L -76.53716 -68.03302 Z M -76.53716 0 " fill="#b9e5fa"/>
<path transform="matrix(1,0,0,-1,269.851,9.312996)" stroke-width=".3985" stroke-linecap="butt" stroke-miterlimit="10" stroke-linejoin="miter" fill="none" stroke="#000000" d="M -102.04953 -68.03302 L -102.04953 0 L -76.53716 0 L -76.53716 -68.03302 Z M -76.53716 0 "/>
<text xml:space="preserve" transform="matrix(0 1 -1 -0 130.531 -146.023)" font-size="9.96264" font-family="CMUSerif"><tspan y="-46.518" x="177.049 183.4251 188.39644 193.37776 196.13742 198.89708">Avail.</tspan></text>
<path transform="matrix(1,0,0,-1,269.851,9.312996)" d="M -76.53716 -68.03302 L -76.53716 0 L -68.03302 0 L -68.03302 -68.03302 Z M -68.03302 0 " fill="#ffffff"/>
<path transform="matrix(1,0,0,-1,269.851,9.312996)" stroke-width=".3985" stroke-linecap="butt" stroke-miterlimit="10" stroke-linejoin="miter" fill="none" stroke="#000000" d="M -76.53716 -68.03302 L -76.53716 0 L -68.03302 0 L -68.03302 -68.03302 Z M -68.03302 0 "/>
<text xml:space="preserve" transform="matrix(1 0 -0 1 .000015258789 77.54399)" font-size="9.96264" font-family="CMUSerif"><tspan y="-30.813" x="193.663">G</tspan></text>
<path transform="matrix(1,0,0,-1,269.851,9.312996)" d="M -68.03302 -68.03302 L -68.03302 0 L -59.52888 0 L -59.52888 -68.03302 Z M -59.52888 0 " fill="#b9e5fa"/>
<path transform="matrix(1,0,0,-1,269.851,9.312996)" stroke-width=".3985" stroke-linecap="butt" stroke-miterlimit="10" stroke-linejoin="miter" fill="none" stroke="#000000" d="M -68.03302 -68.03302 L -68.03302 0 L -59.52888 0 L -59.52888 -68.03302 Z M -59.52888 0 "/>
<text xml:space="preserve" transform="matrix(1 0 -0 1 .000015258789 77.54399)" font-size="9.96264" font-family="CMUSerif"><tspan y="-31.007" x="203.58">0</tspan></text>
<path transform="matrix(1,0,0,-1,269.851,9.312996)" d="M -59.52888 -68.03302 L -59.52888 0 L -51.02477 0 L -51.02477 -68.03302 Z M -51.02477 0 " fill="#ffffff"/>
<path transform="matrix(1,0,0,-1,269.851,9.312996)" stroke-width=".3985" stroke-linecap="butt" stroke-miterlimit="10" stroke-linejoin="miter" fill="none" stroke="#000000" d="M -59.52888 -68.03302 L -59.52888 0 L -51.02477 0 L -51.02477 -68.03302 Z M -51.02477 0 "/>
<text xml:space="preserve" transform="matrix(1 0 -0 1 .000015258789 77.54399)" font-size="9.96264" font-family="CMUSerif"><tspan y="-30.813" x="210.776">D</tspan></text>
<path transform="matrix(1,0,0,-1,269.851,9.312996)" d="M -51.02477 -68.03302 L -51.02477 0 L -42.52063 0 L -42.52063 -68.03302 Z M -42.52063 0 " fill="#b9e5fa"/>
<path transform="matrix(1,0,0,-1,269.851,9.312996)" stroke-width=".3985" stroke-linecap="butt" stroke-miterlimit="10" stroke-linejoin="miter" fill="none" stroke="#000000" d="M -51.02477 -68.03302 L -51.02477 0 L -42.52063 0 L -42.52063 -68.03302 Z M -42.52063 0 "/>
<text xml:space="preserve" transform="matrix(1 0 -0 1 .000015258789 77.544)" font-size="9.96264" font-family="CMUSerif"><tspan y="-30.65" x="219.343">A</tspan></text>
<path transform="matrix(1,0,0,-1,269.851,9.312996)" d="M -42.52063 -68.03302 L -42.52063 0 L -34.0165 0 L -34.0165 -68.03302 Z M -34.0165 0 " fill="#ffffff"/>
<path transform="matrix(1,0,0,-1,269.851,9.312996)" stroke-width=".3985" stroke-linecap="butt" stroke-miterlimit="10" stroke-linejoin="miter" fill="none" stroke="#000000" d="M -42.52063 -68.03302 L -42.52063 0 L -34.0165 0 L -34.0165 -68.03302 Z M -34.0165 0 "/>
<text xml:space="preserve" transform="matrix(1 0 -0 1 0 77.54399)" font-size="9.96264" font-family="CMUSerif"><tspan y="-30.813" x="227.988">C</tspan></text>
<path transform="matrix(1,0,0,-1,269.851,9.312996)" d="M -34.0165 -68.03302 L -34.0165 0 L -25.51237 0 L -25.51237 -68.03302 Z M -25.51237 0 " fill="#b9e5fa"/>
<path transform="matrix(1,0,0,-1,269.851,9.312996)" stroke-width=".3985" stroke-linecap="butt" stroke-miterlimit="10" stroke-linejoin="miter" fill="none" stroke="#000000" d="M -34.0165 -68.03302 L -34.0165 0 L -25.51237 0 L -25.51237 -68.03302 Z M -25.51237 0 "/>
<text xml:space="preserve" transform="matrix(1 0 -0 1 .000015258789 77.54399)" font-size="9.96264" font-family="CMUSerif"><tspan y="-30.922" x="234.972">W</tspan></text>
<path transform="matrix(1,0,0,-1,269.851,9.312996)" d="M -25.51237 -68.03302 L -25.51237 0 L -17.00824 0 L -17.00824 -68.03302 Z M -17.00824 0 " fill="#ffffff"/>
<path transform="matrix(1,0,0,-1,269.851,9.312996)" stroke-width=".3985" stroke-linecap="butt" stroke-miterlimit="10" stroke-linejoin="miter" fill="none" stroke="#000000" d="M -25.51237 -68.03302 L -25.51237 0 L -17.00824 0 L -17.00824 -68.03302 Z M -17.00824 0 "/>
<text xml:space="preserve" transform="matrix(1 0 -0 1 .000015258789 77.54399)" font-size="9.96264" font-family="CMUSerif"><tspan y="-30.922" x="244.855">U</tspan></text>
<path transform="matrix(1,0,0,-1,269.851,9.312996)" d="M -17.00824 -68.03302 L -17.00824 0 L -8.50412 0 L -8.50412 -68.03302 Z M -8.50412 0 " fill="#b9e5fa"/>
<path transform="matrix(1,0,0,-1,269.851,9.312996)" stroke-width=".3985" stroke-linecap="butt" stroke-miterlimit="10" stroke-linejoin="miter" fill="none" stroke="#000000" d="M -17.00824 -68.03302 L -17.00824 0 L -8.50412 0 L -8.50412 -68.03302 Z M -8.50412 0 "/>
<text xml:space="preserve" transform="matrix(1 0 -0 1 .000015258789 77.54399)" font-size="9.96264" font-family="CMUSerif"><tspan y="-30.922" x="253.43">R</tspan></text>
<path transform="matrix(1,0,0,-1,269.851,9.312996)" d="M -8.50412 -68.03302 L -8.50412 0 L 0 0 L 0 -68.03302 Z M 0 0 " fill="#ffffff"/>
<path transform="matrix(1,0,0,-1,269.851,9.312996)" stroke-width=".3985" stroke-linecap="butt" stroke-miterlimit="10" stroke-linejoin="miter" fill="none" stroke="#000000" d="M -8.50412 -68.03302 L -8.50412 0 L 0 0 L 0 -68.03302 Z M 0 0 "/>
<text xml:space="preserve" transform="matrix(1 0 -0 1 0 77.54399)" font-size="9.96264" font-family="CMUSerif"><tspan y="-30.813" x="262.213">P</tspan></text>
<text xml:space="preserve" transform="matrix(.75 0 -0 .75 .6225207 60.02475)" font-size="9.96264" font-family="CMUSerif"><tspan y="-70.077" x="2.49 7.47132">31</tspan></text>
<text xml:space="preserve" transform="matrix(.75 0 -0 .75 42.079767 60.04525)" font-size="9.96264" font-family="CMUSerif"><tspan y="-69.995" x="168.319 173.30033">11</tspan></text>
<text xml:space="preserve" transform="matrix(.75 0 -0 .75 46.79875 60.02475)" font-size="9.96264" font-family="CMUSerif"><tspan y="-70.077" x="187.195">9</tspan></text>
<text xml:space="preserve" transform="matrix(.75 0 -0 .75 66.99576 60.02475)" font-size="9.96264" font-family="CMUSerif"><tspan y="-70.077" x="267.983">0</tspan></text>
</g>
</svg>
