<svg width="340.525" height="157.3" xmlns="http://www.w3.org/2000/svg" version="1.1">

 <g>
  <title>Layer 1</title>
  <g id="svg_1" enable-background="new">
   <path id="svg_2" fill="#6dcff6" d="m331.8566,0.1992l0,28.3468l-104.88312,0l0,-28.3468l104.88312,0zm-104.88312,28.3468l0,-28.3468l-113.38724,0l0,28.3468l113.38724,0zm-113.38724,-28.3468l0,28.3468l-113.38724,0l0,-28.3468l113.38724,0zm-113.38724,28.3468"/>
   <path id="svg_3" d="m331.8566,0.1992l0,28.3468l-104.88312,0l0,-28.3468l104.88312,0zm-104.88312,28.3468l0,-28.3468l-113.38724,0l0,28.3468l113.38724,0zm-113.38724,-28.3468l0,28.3468l-113.38724,0l0,-28.3468l113.38724,0zm-113.38724,28.3468" stroke="#000000" fill="none" stroke-miterlimit="10" stroke-width="0.3985"/>
   <path id="svg_4" fill="#ff8000" d="m331.8566,0.1992l0,28.3468l8.5041,0l0,-28.3468l-8.5041,0zm8.5041,28.3468"/>
   <path id="svg_5" d="m331.8566,0.1992l0,28.3468l8.5041,0l0,-28.3468l-8.5041,0zm8.5041,28.3468" stroke="#000000" fill="none" stroke-miterlimit="10" stroke-width="0.3985"/>
   <text id="svg_6" font-family="CMUSerif" font-size="9.96264" transform="matrix(1.5 0 -0 1.5 -166.18445 33.443)" xml:space="preserve">
    <tspan id="svg_7" x="332.369" y="-9.396">1</tspan>
   </text>
   <text id="svg_8" font-family="CMUSerif" font-size="9.96264" transform="matrix(1.5 0 -0 1.5 -21.189503 33.381006)" xml:space="preserve">
    <tspan id="svg_9" x="42.379 47.908269 52.889589 56.755094" y="-9.272">data</tspan>
   </text>
   <text id="svg_10" font-family="CMUSerif" font-size="9.96264" transform="matrix(1.5 0 -0 1.5 -79.31801 33.474004)" xml:space="preserve">
    <tspan id="svg_11" x="158.636 162.56128 165.32094 169.74436" y="-9.458">size</tspan>
   </text>
   <text id="svg_12" font-family="CMUSerif" font-size="9.96264" transform="matrix(1.5 0 -0 1.5 -126.23399 34.198)" xml:space="preserve">
    <tspan id="svg_13" x="252.468 256.89143 261.87275 267.402 272.38334 276.80674 279.56639 283.1629" y="-10.906">capacity</tspan>
   </text>
  </g>
  <g>
   <g enable-background="new">
    <path fill="#00ff00" d="m0.30263,61.05467l340.1617,0m-340.1617,-28.33684l340.1617,0m-340.1617,28.33684l0,-28.3468m28.3468,28.3468l0,-28.3468m28.34682,28.3468l0,-28.3468m28.3468,28.3468l0,-28.3468m28.34682,28.3468l0,-28.3468m28.3468,28.3468l0,-28.3468m28.34682,28.3468l0,-28.3468m28.3468,28.3468l0,-28.3468m28.34682,28.3468l0,-28.3468m28.3468,28.3468l0,-28.3468m28.34682,28.3468l0,-28.3468m28.3468,28.3468l0,-28.3468m28.33687,28.3468l0,-28.3468m-340.15177,28.3468l0,-28.3468l331.6576,0l0,28.3468l-331.6576,0zm331.6576,-28.3468"/>
    <path d="m0.30263,61.05467l340.1617,0m-340.1617,-28.33684l340.1617,0m-340.1617,28.33684l0,-28.3468m28.3468,28.3468l0,-28.3468m28.34682,28.3468l0,-28.3468m28.3468,28.3468l0,-28.3468m28.34682,28.3468l0,-28.3468m28.3468,28.3468l0,-28.3468m28.34682,28.3468l0,-28.3468m28.3468,28.3468l0,-28.3468m28.34682,28.3468l0,-28.3468m28.3468,28.3468l0,-28.3468m28.34682,28.3468l0,-28.3468m28.3468,28.3468l0,-28.3468m28.33687,28.3468l0,-28.3468m-340.15177,28.3468l0,-28.3468l331.6576,0l0,28.3468l-331.6576,0zm331.6576,-28.3468" stroke="#000000" fill="none" stroke-miterlimit="10" stroke-width="0.3985"/>
    <path fill="#ff8000" d="m331.96023,32.70787l0,28.3468l8.5041,0l0,-28.3468l-8.5041,0zm8.5041,28.3468"/>
    <path d="m331.96023,32.70787l0,28.3468l8.5041,0l0,-28.3468l-8.5041,0zm8.5041,28.3468" stroke="#000000" fill="none" stroke-miterlimit="10" stroke-width="0.3985"/>
    <text x="0.06908" y="21.67244" font-family="CMUSerif" font-size="9.96264" transform="matrix(1.5 0 0 1.5 -166.184 33.525)" xml:space="preserve">
     <tspan x="331.0201" y="12.11251">0</tspan>
    </text>
    <text x="0.06908" y="21.67244" font-family="CMUSerif" font-size="9.96264" transform="matrix(1.5 0 0 1.5 -159.098 33.525)" xml:space="preserve">
     <tspan x="316.8471" y="12.11251">3</tspan>
    </text>
    <text x="0.06908" y="21.67244" font-family="CMUSerif" font-size="9.96264" transform="matrix(1.5 0 0 1.5 -5.114 33.379)" xml:space="preserve">
     <tspan x="8.8791" y="12.40451">S</tspan>
    </text>
    <text x="0.06908" y="21.67244" font-family="CMUSerif" font-size="9.96264" transform="matrix(1.5 0 0 1.5 -18.249 34.2805)" xml:space="preserve">
     <tspan x="35.1491" y="10.60151">m</tspan>
    </text>
    <text x="0.06908" y="21.67244" font-family="CMUSerif" font-size="9.96264" transform="matrix(1.5 0 0 1.5 -33.6645 34.2985)" xml:space="preserve">
     <tspan x="65.9801" y="10.56551">a</tspan>
    </text>
    <text x="0.06908" y="21.67244" font-family="CMUSerif" font-size="9.96264" transform="matrix(1.5 0 0 1.5 -48.6715 33.339)" xml:space="preserve">
     <tspan x="95.9941" y="12.48451">l</tspan>
    </text>
    <text x="0.06908" y="21.67244" font-family="CMUSerif" font-size="9.96264" transform="matrix(1.5 0 0 1.5 -62.845 33.339)" xml:space="preserve">
     <tspan x="124.3411" y="12.48451">l</tspan>
    </text>
    <text x="0.06908" y="21.67244" font-family="CMUSerif" font-size="9.96264" transform="matrix(1.5 0 0 1.5 -90.755 34.2985)" xml:space="preserve">
     <tspan x="180.1611" y="10.56551">s</tspan>
    </text>
    <text x="0.06908" y="21.67244" font-family="CMUSerif" font-size="9.96264" transform="matrix(1.5 0 0 1.5 -104.951 33.6745)" xml:space="preserve">
     <tspan x="208.5521" y="11.81351">t</tspan>
    </text>
    <text x="0.06908" y="21.67244" font-family="CMUSerif" font-size="9.96264" transform="matrix(1.5 0 0 1.5 -116.836 34.063)" xml:space="preserve">
     <tspan x="233.672 238.65332" y="11.03651">\0</tspan>
    </text>
   </g>
  </g>
  <g id="svg_41">
   <g id="svg_40" enable-background="new">
    <path id="svg_14" fill="#00ff00" d="m0.28693,92.78488l340.1617,0m-340.1617,-28.33684l340.1617,0m-340.1617,28.33684l0,-28.3468m28.3468,28.3468l0,-28.3468m28.34682,28.3468l0,-28.3468m28.3468,28.3468l0,-28.3468m28.34682,28.3468l0,-28.3468m28.3468,28.3468l0,-28.3468m28.34682,28.3468l0,-28.3468m28.3468,28.3468l0,-28.3468m28.34682,28.3468l0,-28.3468m28.3468,28.3468l0,-28.3468m28.34682,28.3468l0,-28.3468m28.3468,28.3468l0,-28.3468m28.33687,28.3468l0,-28.3468m-340.15177,28.3468l0,-28.3468l331.6576,0l0,28.3468l-331.6576,0zm331.6576,-28.3468"/>
    <path id="svg_15" d="m0.28693,92.78488l340.1617,0m-340.1617,-28.33684l340.1617,0m-340.1617,28.33684l0,-28.3468m28.3468,28.3468l0,-28.3468m28.34682,28.3468l0,-28.3468m28.3468,28.3468l0,-28.3468m28.34682,28.3468l0,-28.3468m28.3468,28.3468l0,-28.3468m28.34682,28.3468l0,-28.3468m28.3468,28.3468l0,-28.3468m28.34682,28.3468l0,-28.3468m28.3468,28.3468l0,-28.3468m28.34682,28.3468l0,-28.3468m28.3468,28.3468l0,-28.3468m28.33687,28.3468l0,-28.3468m-340.15177,28.3468l0,-28.3468l331.6576,0l0,28.3468l-331.6576,0zm331.6576,-28.3468" stroke="#000000" fill="none" stroke-miterlimit="10" stroke-width="0.3985"/>
    <path id="svg_16" fill="#ff8000" d="m331.94453,64.43808l0,28.3468l8.5041,0l0,-28.3468l-8.5041,0zm8.5041,28.3468"/>
    <path id="svg_17" d="m331.94453,64.43808l0,28.3468l8.5041,0l0,-28.3468l-8.5041,0zm8.5041,28.3468" stroke="#000000" fill="none" stroke-miterlimit="10" stroke-width="0.3985"/>
    <text id="svg_19" x="0.05862" y="42.82592" font-family="CMUSerif" font-size="9.96264" transform="matrix(1.5 0 0 1.5 -166.184 33.525)" xml:space="preserve">
     <tspan id="svg_18" x="331.00964" y="33.26599">0</tspan>
    </text>
    <text id="svg_21" x="0.05862" y="42.82592" font-family="CMUSerif" font-size="9.96264" transform="matrix(1.5 0 0 1.5 -159.098 33.443)" xml:space="preserve">
     <tspan id="svg_20" x="316.83664" y="33.42999">2</tspan>
    </text>
    <text id="svg_23" x="0.05862" y="42.82592" font-family="CMUSerif" font-size="9.96264" transform="matrix(1.5 0 0 1.5 -5.114 33.379)" xml:space="preserve">
     <tspan id="svg_22" x="8.86864" y="33.55799">S</tspan>
    </text>
    <text id="svg_25" x="0.05862" y="42.82592" font-family="CMUSerif" font-size="9.96264" transform="matrix(1.5 0 0 1.5 -18.249 34.2805)" xml:space="preserve">
     <tspan id="svg_24" x="35.13864" y="31.75499">m</tspan>
    </text>
    <text id="svg_27" x="0.05862" y="42.82592" font-family="CMUSerif" font-size="9.96264" transform="matrix(1.5 0 0 1.5 -33.6645 34.2985)" xml:space="preserve">
     <tspan id="svg_26" x="65.96964" y="31.71899">a</tspan>
    </text>
    <text id="svg_29" x="0.05862" y="42.82592" font-family="CMUSerif" font-size="9.96264" transform="matrix(1.5 0 0 1.5 -48.6715 33.339)" xml:space="preserve">
     <tspan id="svg_28" x="95.98364" y="33.63799">l</tspan>
    </text>
    <text id="svg_31" x="0.05862" y="42.82592" font-family="CMUSerif" font-size="9.96264" transform="matrix(1.5 0 0 1.5 -62.845 33.339)" xml:space="preserve">
     <tspan id="svg_30" x="124.33064" y="33.63799">l</tspan>
    </text>
    <text id="svg_33" x="0.05862" y="42.82592" font-family="CMUSerif" font-size="9.96264" transform="matrix(1.5 0 0 1.5 -90.755 34.2985)" xml:space="preserve">
     <tspan id="svg_32" x="180.15064" y="31.71899">s</tspan>
    </text>
    <text id="svg_35" x="0.05862" y="42.82592" font-family="CMUSerif" font-size="9.96264" transform="matrix(1.5 0 0 1.5 -104.951 33.6745)" xml:space="preserve">
     <tspan id="svg_34" x="208.54164" y="32.96699">t</tspan>
    </text>
    <text id="svg_37" x="0.05862" y="42.82592" font-family="CMUSerif" font-size="9.96264" transform="matrix(1.5 0 0 1.5 -119.113 34.2805)" xml:space="preserve">
     <tspan id="svg_36" x="236.86564" y="31.75499">r</tspan>
    </text>
    <text id="svg_39" x="0.05862" y="42.82592" font-family="CMUSerif" font-size="9.96264" transform="matrix(1.5 0 0 1.5 -131.009 34.063)" xml:space="preserve">
     <tspan id="svg_38" x="262.018 266.99934" y="32.18999">\0</tspan>
    </text>
   </g>
  </g>
  <g>
   <g enable-background="new">
    <path fill="#00ff00" d="m0.33097,125.13457l340.1617,0m-340.1617,-28.33684l340.1617,0m-340.1617,28.33684l0,-28.3468m28.3468,28.3468l0,-28.3468m28.34682,28.3468l0,-28.3468m28.3468,28.3468l0,-28.3468m28.34682,28.3468l0,-28.3468m28.3468,28.3468l0,-28.3468m28.34682,28.3468l0,-28.3468m28.3468,28.3468l0,-28.3468m28.34682,28.3468l0,-28.3468m28.3468,28.3468l0,-28.3468m28.34682,28.3468l0,-28.3468m28.3468,28.3468l0,-28.3468m28.33687,28.3468l0,-28.3468m-340.15177,28.3468l0,-28.3468l331.6576,0l0,28.3468l-331.6576,0zm331.6576,-28.3468"/>
    <path d="m0.33097,125.13457l340.1617,0m-340.1617,-28.33684l340.1617,0m-340.1617,28.33684l0,-28.3468m28.3468,28.3468l0,-28.3468m28.34682,28.3468l0,-28.3468m28.3468,28.3468l0,-28.3468m28.34682,28.3468l0,-28.3468m28.3468,28.3468l0,-28.3468m28.34682,28.3468l0,-28.3468m28.3468,28.3468l0,-28.3468m28.34682,28.3468l0,-28.3468m28.3468,28.3468l0,-28.3468m28.34682,28.3468l0,-28.3468m28.3468,28.3468l0,-28.3468m28.33687,28.3468l0,-28.3468m-340.15177,28.3468l0,-28.3468l331.6576,0l0,28.3468l-331.6576,0zm331.6576,-28.3468" stroke="#000000" fill="none" stroke-miterlimit="10" stroke-width="0.3985"/>
    <path fill="#ff8000" d="m331.98857,96.78777l0,28.3468l8.5041,0l0,-28.3468l-8.5041,0zm8.5041,28.3468"/>
    <path d="m331.98857,96.78777l0,28.3468l8.5041,0l0,-28.3468l-8.5041,0zm8.5041,28.3468" stroke="#000000" fill="none" stroke-miterlimit="10" stroke-width="0.3985"/>
    <text x="0.08798" y="64.39238" font-family="CMUSerif" font-size="9.96264" transform="matrix(1.5 0 0 1.5 -166.184 33.525)" xml:space="preserve">
     <tspan x="331.03899" y="54.83245">0</tspan>
    </text>
    <text x="0.08798" y="64.39238" font-family="CMUSerif" font-size="9.96264" transform="matrix(1.5 0 0 1.5 -159.098 33.443)" xml:space="preserve">
     <tspan x="316.86599" y="54.99645">1</tspan>
    </text>
    <text x="0.08798" y="64.39238" font-family="CMUSerif" font-size="9.96264" transform="matrix(1.5 0 0 1.5 -5.114 33.379)" xml:space="preserve">
     <tspan x="8.89799" y="55.12445">S</tspan>
    </text>
    <text x="0.08798" y="64.39238" font-family="CMUSerif" font-size="9.96264" transform="matrix(1.5 0 0 1.5 -18.249 34.2805)" xml:space="preserve">
     <tspan x="35.16799" y="53.32145">m</tspan>
    </text>
    <text x="0.08798" y="64.39238" font-family="CMUSerif" font-size="9.96264" transform="matrix(1.5 0 0 1.5 -33.6645 34.2985)" xml:space="preserve">
     <tspan x="65.99899" y="53.28545">a</tspan>
    </text>
    <text x="0.08798" y="64.39238" font-family="CMUSerif" font-size="9.96264" transform="matrix(1.5 0 0 1.5 -48.6715 33.339)" xml:space="preserve">
     <tspan x="96.01299" y="55.20445">l</tspan>
    </text>
    <text x="0.08798" y="64.39238" font-family="CMUSerif" font-size="9.96264" transform="matrix(1.5 0 0 1.5 -62.845 33.339)" xml:space="preserve">
     <tspan x="124.35999" y="55.20445">l</tspan>
    </text>
    <text x="0.08798" y="64.39238" font-family="CMUSerif" font-size="9.96264" transform="matrix(1.5 0 0 1.5 -90.755 34.2985)" xml:space="preserve">
     <tspan x="180.17999" y="53.28545">s</tspan>
    </text>
    <text x="0.08798" y="64.39238" font-family="CMUSerif" font-size="9.96264" transform="matrix(1.5 0 0 1.5 -104.951 33.6745)" xml:space="preserve">
     <tspan x="208.57099" y="54.53345">t</tspan>
    </text>
    <text x="0.08798" y="64.39238" font-family="CMUSerif" font-size="9.96264" transform="matrix(1.5 0 0 1.5 -119.113 34.2805)" xml:space="preserve">
     <tspan x="236.89499" y="53.32145">r</tspan>
    </text>
    <text x="0.08798" y="64.39238" font-family="CMUSerif" font-size="9.96264" transform="matrix(1.5 0 0 1.5 -133.711 33.432)" xml:space="preserve">
     <tspan x="267.50998" y="55.01845">i</tspan>
    </text>
    <text x="0.08798" y="64.39238" font-family="CMUSerif" font-size="9.96264" transform="matrix(1.5 0 0 1.5 -145.182 34.063)" xml:space="preserve">
     <tspan x="290.365 295.3463" y="53.75645">\0</tspan>
    </text>
   </g>
  </g>
  <g>
   <g enable-background="new">
    <path fill="#00ff00" d="m0.13197,-128.60108l340.1617,0m-340.1617,28.33684l340.1617,0m-340.1617,-28.33684l0,28.3468m28.3468,-28.3468l0,28.3468m28.34682,-28.3468l0,28.3468m28.3468,-28.3468l0,28.3468m28.34682,-28.3468l0,28.3468m28.3468,-28.3468l0,28.3468m28.34682,-28.3468l0,28.3468m28.3468,-28.3468l0,28.3468m28.34682,-28.3468l0,28.3468m28.3468,-28.3468l0,28.3468m28.34682,-28.3468l0,28.3468m28.3468,-28.3468l0,28.3468m28.33687,-28.3468l0,28.3468m-340.15177,-28.3468l0,28.3468l331.6576,0l0,-28.3468l-331.6576,0zm331.6576,28.3468" transform="matrix(1 0 0 -1 0.199 28.546)"/>
    <path d="m0.13197,-128.60108l340.1617,0m-340.1617,28.33684l340.1617,0m-340.1617,-28.33684l0,28.3468m28.3468,-28.3468l0,28.3468m28.34682,-28.3468l0,28.3468m28.3468,-28.3468l0,28.3468m28.34682,-28.3468l0,28.3468m28.3468,-28.3468l0,28.3468m28.34682,-28.3468l0,28.3468m28.3468,-28.3468l0,28.3468m28.34682,-28.3468l0,28.3468m28.3468,-28.3468l0,28.3468m28.34682,-28.3468l0,28.3468m28.3468,-28.3468l0,28.3468m28.33687,-28.3468l0,28.3468m-340.15177,-28.3468l0,28.3468l331.6576,0l0,-28.3468l-331.6576,0zm331.6576,28.3468" stroke="#000000" fill="none" stroke-miterlimit="10" stroke-width="0.3985" transform="matrix(1 0 0 -1 0.199 28.546)"/>
    <path fill="#ff8000" d="m331.78957,-100.25428l0,-28.3468l8.5041,0l0,28.3468l-8.5041,0zm8.5041,-28.3468" transform="matrix(1 0 0 -1 0.199 28.546)"/>
    <path d="m331.78957,-100.25428l0,-28.3468l8.5041,0l0,28.3468l-8.5041,0zm8.5041,-28.3468" stroke="#000000" fill="none" stroke-miterlimit="10" stroke-width="0.3985" transform="matrix(1 0 0 -1 0.199 28.546)"/>
    <text x="0.08798" y="85.73405" font-family="CMUSerif" font-size="9.96264" transform="matrix(1.5 0 0 1.5 -166.184 33.525)" xml:space="preserve">
     <tspan x="331.03899" y="76.17412">0</tspan>
    </text>
    <text x="0.08798" y="85.73405" font-family="CMUSerif" font-size="9.96264" transform="matrix(1.5 0 0 1.5 -157.23 34.063)" xml:space="preserve">
     <tspan x="314.46 319.4413" y="75.09812">\0</tspan>
    </text>
    <text x="0.08798" y="85.73405" font-family="CMUSerif" font-size="9.96264" transform="matrix(1.5 0 0 1.5 -5.114 33.379)" xml:space="preserve">
     <tspan x="8.89799" y="76.46612">S</tspan>
    </text>
    <text x="0.08798" y="85.73405" font-family="CMUSerif" font-size="9.96264" transform="matrix(1.5 0 0 1.5 -18.249 34.2805)" xml:space="preserve">
     <tspan x="35.16799" y="74.66312">m</tspan>
    </text>
    <text x="0.08798" y="85.73405" font-family="CMUSerif" font-size="9.96264" transform="matrix(1.5 0 0 1.5 -33.6645 34.2985)" xml:space="preserve">
     <tspan x="65.99899" y="74.62712">a</tspan>
    </text>
    <text x="0.08798" y="85.73405" font-family="CMUSerif" font-size="9.96264" transform="matrix(1.5 0 0 1.5 -48.6715 33.339)" xml:space="preserve">
     <tspan x="96.01299" y="76.54612">l</tspan>
    </text>
    <text x="0.08798" y="85.73405" font-family="CMUSerif" font-size="9.96264" transform="matrix(1.5 0 0 1.5 -62.845 33.339)" xml:space="preserve">
     <tspan x="124.35999" y="76.54612">l</tspan>
    </text>
    <text x="0.08798" y="85.73405" font-family="CMUSerif" font-size="9.96264" transform="matrix(1.5 0 0 1.5 -90.755 34.2985)" xml:space="preserve">
     <tspan x="180.17999" y="74.62712">s</tspan>
    </text>
    <text x="0.08798" y="85.73405" font-family="CMUSerif" font-size="9.96264" transform="matrix(1.5 0 0 1.5 -104.951 33.6745)" xml:space="preserve">
     <tspan x="208.57099" y="75.87512">t</tspan>
    </text>
    <text x="0.08798" y="85.73405" font-family="CMUSerif" font-size="9.96264" transform="matrix(1.5 0 0 1.5 -119.113 34.2805)" xml:space="preserve">
     <tspan x="236.89499" y="74.66312">r</tspan>
    </text>
    <text x="0.08798" y="85.73405" font-family="CMUSerif" font-size="9.96264" transform="matrix(1.5 0 0 1.5 -133.711 33.432)" xml:space="preserve">
     <tspan x="267.50998" y="76.36012">i</tspan>
    </text>
    <text x="0.08798" y="85.73405" font-family="CMUSerif" font-size="9.96264" transform="matrix(1.5 0 0 1.5 -146.846 34.2805)" xml:space="preserve">
     <tspan x="292.36199" y="74.66312">n</tspan>
    </text>
   </g>
  </g>
 </g>
</svg>