<?xml version="1.0" encoding="UTF-8" standalone="no"?>
<!DOCTYPE svg PUBLIC "-//W3C//DTD SVG 1.1//EN" "http://www.w3.org/Graphics/SVG/1.1/DTD/svg11.dtd">
<svg xmlns="http://www.w3.org/2000/svg" xmlns:xlink="http://www.w3.org/1999/xlink" version="1.1" width="453.942pt" height="269.69pt" viewBox="0 0 453.942 269.69">
<rect width="100%" height="100%" fill="white"/>
<g enable-background="new">
<path transform="matrix(1,0,0,-1,28.546,255.31801)" stroke-width=".3985" stroke-linecap="butt" stroke-miterlimit="10" stroke-linejoin="miter" fill="none" stroke="#000000" d="M 0 0 L 0 56.69362 L 56.69362 56.69362 L 56.69362 0 Z M 56.69362 56.69362 L 56.69362 0 L 113.38724 0 L 113.38724 56.69362 Z M 113.38724 0 "/>
<text xml:space="preserve" transform="matrix(1 0 -0 1 0 269.69)" font-size="9.96264" font-family="CMUSerif"><tspan y="-40.352" x="41.408 47.206258 52.187578 54.947229 60.207506 64.073009 68.496417">pointer</tspan></text>
<text xml:space="preserve" transform="matrix(1 0 -0 1 0 269.69)" font-size="9.96264" font-family="CMUSerif"><tspan y="-45.296" x="99.451 103.376277 108.90554 113.88686 117.78226 122.20567">shared</tspan><tspan y="-33.341" x="101.565 105.98842 110.96974 116.49901 121.759288">count</tspan></text>
<path transform="matrix(1,0,0,-1,28.546,255.31801)" stroke-width=".3985" stroke-linecap="butt" stroke-miterlimit="10" stroke-linejoin="miter" fill="none" stroke="#000000" d="M -7.08669 -14.17339 L -7.08669 63.78032 L 120.47394 63.78032 L 120.47394 -14.17339 Z M 120.47394 63.78032 "/>
<text xml:space="preserve" transform="matrix(1 0 -0 1 0 269.69)" font-size="9.96264" font-family="CMUSerif"><tspan y="-5.194" x="82.614">v</tspan></text>
<path transform="matrix(1,0,0,-1,28.546,255.31801)" stroke-width=".3985" stroke-linecap="butt" stroke-miterlimit="10" stroke-linejoin="miter" fill="none" stroke="#000000" d="M -28.3468 170.08086 L -28.3468 226.77448 L 141.73404 226.77448 L 141.73404 170.08086 Z M 141.73404 226.77448 "/>
<path transform="matrix(1,0,0,-1,28.546,255.31801)" stroke-width=".3985" stroke-linecap="butt" stroke-miterlimit="10" stroke-linejoin="miter" fill="none" stroke="#000000" d="M -21.2601 184.25424 L -21.2601 219.68775 L 7.0867 219.68775 L 7.0867 184.25424 Z M 7.0867 219.68775 L 7.0867 184.25424 L 35.4335 184.25424 L 35.4335 219.68775 Z M 35.4335 184.25424 L 35.4335 219.68775 L 63.78032 219.68775 L 63.78032 184.25424 Z M 63.78032 219.68775 L 63.78032 184.25424 L 92.12712 184.25424 L 92.12712 219.68775 Z M 92.12712 184.25424 L 92.12712 219.68775 L 106.30052 219.68775 L 106.30052 184.25424 Z M 106.30052 219.68775 "/>
<text xml:space="preserve" transform="matrix(1 0 -0 1 -.0000076293949 269.69)" font-size="9.96264" font-family="CMUSerif"><tspan y="-215.818" x="123.606 126.37562 129.14524">...</tspan></text>
<text xml:space="preserve" transform="matrix(1 0 -0 1 0 269.69)" font-size="9.96264" font-family="CMUSerif"><tspan y="-189.103" x="71.834 76.81532 82.9025 85.9411 90.36452 94.78793">object</tspan></text>
<path transform="matrix(1,0,0,-1,28.546,255.31801)" stroke-width=".3985" stroke-linecap="butt" stroke-miterlimit="10" stroke-linejoin="miter" fill="none" stroke="#000000" d="M 198.42766 170.08086 L 198.42766 226.77448 L 255.12128 226.77448 L 255.12128 170.08086 Z M 255.12128 226.77448 L 255.12128 170.08086 L 311.8149 170.08086 L 311.8149 226.77448 Z M 311.8149 170.08086 L 311.8149 226.77448 L 425.20213 226.77448 L 425.20213 170.08086 Z M 425.20213 226.77448 "/>
<text xml:space="preserve" transform="matrix(1 0 -0 1 .000015258789 269.69)" font-size="9.96264" font-family="CMUSerif"><tspan y="-209.48" x="252.827">2</tspan></text>
<text xml:space="preserve" transform="matrix(1 0 -0 1 0 269.69)" font-size="9.96264" font-family="CMUSerif"><tspan y="-210.431" x="296.526 302.32426 307.30558 310.06523 315.3255 319.191 323.6144">pointer</tspan></text>
<text xml:space="preserve" transform="matrix(1 0 -0 1 0 269.69)" font-size="9.96264" font-family="CMUSerif"><tspan y="-209.397" x="382.397 387.92628 392.34968 395.1093 399.5327 403.39823 407.82164">deleter</tspan></text>
<path transform="matrix(1,0,0,-1,28.546,255.31801)" stroke-width=".3985" stroke-linecap="butt" stroke-miterlimit="10" stroke-linejoin="miter" fill="none" stroke="#000000" d="M 226.77448 0 L 226.77448 56.69362 L 283.4681 56.69362 L 283.4681 0 Z M 283.4681 56.69362 L 283.4681 0 L 340.1617 0 L 340.1617 56.69362 Z M 340.1617 0 "/>
<text xml:space="preserve" transform="matrix(1 0 -0 1 0 269.69)" font-size="9.96264" font-family="CMUSerif"><tspan y="-40.352" x="268.18 273.97825 278.95957 281.7192 286.9795 290.845 295.2684">pointer</tspan></text>
<text xml:space="preserve" transform="matrix(1 0 -0 1 0 269.69)" font-size="9.96264" font-family="CMUSerif"><tspan y="-45.296" x="326.223 330.1483 335.67756 340.65888 344.55427 348.97767">shared</tspan><tspan y="-33.341" x="328.336 332.7594 337.74073 343.27 348.53028">count</tspan></text>
<path transform="matrix(1,0,0,-1,28.546,255.31801)" stroke-width=".3985" stroke-linecap="butt" stroke-miterlimit="10" stroke-linejoin="miter" fill="none" stroke="#000000" d="M 219.68776 -14.17339 L 219.68776 63.78032 L 347.2484 63.78032 L 347.2484 -14.17339 Z M 347.2484 63.78032 "/>
<text xml:space="preserve" transform="matrix(1 0 -0 1 0 269.69)" font-size="9.96264" font-family="CMUSerif"><tspan y="-4.024" x="305.925 313.118">w2</tspan></text>
<path transform="matrix(1,0,0,-1,28.546,255.31801)" stroke-width=".3985" stroke-linecap="butt" stroke-miterlimit="10" stroke-linejoin="miter" fill="none" stroke="#000000" d="M 28.3468 56.69362 L 28.3468 169.68235 "/>
<path transform="matrix(0,-1,-1,-0,56.8928,85.43642)" stroke-width=".3985" stroke-linecap="round" stroke-linejoin="round" fill="none" stroke="#000000" d="M -2.07224 2.39104 C -1.69365 .95639 -.84999 .27895 0 0 C -.84999 -.27895 -1.69365 -.95639 -2.07224 -2.39104 "/>
<path transform="matrix(1,0,0,-1,28.546,255.31801)" stroke-width=".3985" stroke-linecap="butt" stroke-miterlimit="10" stroke-linejoin="miter" fill="none" stroke="#000000" d="M 255.12128 56.69362 L 49.94547 184.04412 "/>
<path transform="matrix(-.84961,-.52734,-.52734,.84961,78.3222,71.16884)" stroke-width=".3985" stroke-linecap="round" stroke-linejoin="round" fill="none" stroke="#000000" d="M -2.07224 2.39104 C -1.69365 .95639 -.84999 .27895 0 0 C -.84999 -.27895 -1.69365 -.95639 -2.07224 -2.39104 "/>
<path transform="matrix(1,0,0,-1,28.546,255.31801)" stroke-width=".3985" stroke-linecap="butt" stroke-miterlimit="10" stroke-linejoin="miter" fill="none" stroke="#000000" d="M 85.04042 56.69362 L 226.46332 169.83194 "/>
<path transform="matrix(.78082,-.62465,-.62465,-.78082,255.1649,85.36162)" stroke-width=".3985" stroke-linecap="round" stroke-linejoin="round" fill="none" stroke="#000000" d="M -2.07224 2.39104 C -1.69365 .95639 -.84999 .27895 0 0 C -.84999 -.27895 -1.69365 -.95639 -2.07224 -2.39104 "/>
<path transform="matrix(1,0,0,-1,28.546,255.31801)" stroke-width=".3985" stroke-linecap="butt" stroke-miterlimit="10" stroke-linejoin="miter" fill="none" stroke="#000000" d="M 311.8149 56.69362 L 227.01357 169.76207 "/>
<path transform="matrix(-.59999,-.79997,-.79997,.59999,255.44002,85.396549)" stroke-width=".3985" stroke-linecap="round" stroke-linejoin="round" fill="none" stroke="#000000" d="M -2.07224 2.39104 C -1.69365 .95639 -.84999 .27895 0 0 C -.84999 -.27895 -1.69365 -.95639 -2.07224 -2.39104 "/>
<path transform="matrix(1,0,0,-1,28.546,255.31801)" stroke-width=".3985" stroke-linecap="butt" stroke-miterlimit="10" stroke-linejoin="miter" fill="none" stroke="#000000" d="M 283.4681 226.77448 L 283.4681 255.12128 L 56.69362 255.12128 L 56.69362 227.17298 "/>
<path transform="matrix(0,1,1,0,85.23962,28.344285)" stroke-width=".3985" stroke-linecap="round" stroke-linejoin="round" fill="none" stroke="#000000" d="M -2.07224 2.39104 C -1.69365 .95639 -.84999 .27895 0 0 C -.84999 -.27895 -1.69365 -.95639 -2.07224 -2.39104 "/>
</g>
</svg>
